<?xml version="1.0" encoding="UTF-8" standalone="no"?>
<!DOCTYPE svg PUBLIC "-//W3C//DTD SVG 1.1//EN"
 "http://www.w3.org/Graphics/SVG/1.1/DTD/svg11.dtd">
<!-- Generated by graphviz version 3.0.0 (20220226.1711)
 -->
<!-- Title: name Pages: 1 -->
<svg width="95pt" height="312pt"
 viewBox="0.00 0.00 95.15 311.89" xmlns="http://www.w3.org/2000/svg" xmlns:xlink="http://www.w3.org/1999/xlink">
<g id="graph0" class="graph" transform="scale(1 1) rotate(0) translate(4 307.89)">
<title>name</title>
<polygon fill="white" stroke="transparent" points="-4,4 -4,-307.89 91.15,-307.89 91.15,4 -4,4"/>
<!-- q1 -->
<g id="node1" class="node">
<title>q1</title>
<ellipse fill="none" stroke="black" cx="27" cy="-210.74" rx="20.3" ry="20.3"/>
<text text-anchor="middle" x="27" y="-207.04" font-family="Times New Roman,serif" font-size="14.00">q1</text>
</g>
<!-- q1&#45;&gt;q1 -->
<g id="edge3" class="edge">
<title>q1&#45;&gt;q1</title>
<path fill="none" stroke="black" d="M46.24,-217.62C56.18,-218.67 65.15,-216.38 65.15,-210.74 65.15,-207.22 61.65,-205 56.59,-204.09"/>
<polygon fill="black" stroke="black" points="56.31,-200.58 46.24,-203.87 56.16,-207.58 56.31,-200.58"/>
<text text-anchor="middle" x="69.15" y="-207.04" font-family="Times New Roman,serif" font-size="14.00">b</text>
</g>
<!-- q2 -->
<g id="node2" class="node">
<title>q2</title>
<ellipse fill="none" stroke="black" cx="27" cy="-119.44" rx="20.3" ry="20.3"/>
<text text-anchor="middle" x="27" y="-115.74" font-family="Times New Roman,serif" font-size="14.00">q2</text>
</g>
<!-- q1&#45;&gt;q2 -->
<g id="edge2" class="edge">
<title>q1&#45;&gt;q2</title>
<path fill="none" stroke="black" d="M27,-190.37C27,-178.55 27,-163.21 27,-149.91"/>
<polygon fill="black" stroke="black" points="30.5,-149.78 27,-139.78 23.5,-149.78 30.5,-149.78"/>
<text text-anchor="middle" x="30.5" y="-161.39" font-family="Times New Roman,serif" font-size="14.00">a</text>
</g>
<!-- q2&#45;&gt;q2 -->
<g id="edge5" class="edge">
<title>q2&#45;&gt;q2</title>
<path fill="none" stroke="black" d="M45.84,-127.35C55.94,-128.7 65.15,-126.06 65.15,-119.44 65.15,-115.21 61.37,-112.6 56,-111.63"/>
<polygon fill="black" stroke="black" points="55.87,-108.13 45.84,-111.54 55.81,-115.13 55.87,-108.13"/>
<text text-anchor="middle" x="69.15" y="-115.74" font-family="Times New Roman,serif" font-size="14.00">b</text>
</g>
<!-- q3 -->
<g id="node3" class="node">
<title>q3</title>
<ellipse fill="none" stroke="black" cx="27" cy="-24.15" rx="20.27" ry="20.27"/>
<ellipse fill="none" stroke="black" cx="27" cy="-24.15" rx="24.3" ry="24.3"/>
<text text-anchor="middle" x="27" y="-20.45" font-family="Times New Roman,serif" font-size="14.00">q3</text>
</g>
<!-- q2&#45;&gt;q3 -->
<g id="edge4" class="edge">
<title>q2&#45;&gt;q3</title>
<path fill="none" stroke="black" d="M27,-99.11C27,-87.37 27,-72.07 27,-58.43"/>
<polygon fill="black" stroke="black" points="30.5,-58.42 27,-48.42 23.5,-58.42 30.5,-58.42"/>
<text text-anchor="middle" x="30.5" y="-70.1" font-family="Times New Roman,serif" font-size="14.00">a</text>
</g>
<!-- q3&#45;&gt;q3 -->
<g id="edge6" class="edge">
<title>q3&#45;&gt;q3</title>
<path fill="none" stroke="black" d="M49.55,-32.97C60.01,-33.93 69.15,-30.99 69.15,-24.15 69.15,-19.66 65.21,-16.85 59.55,-15.72"/>
<polygon fill="black" stroke="black" points="59.68,-12.22 49.55,-15.33 59.4,-19.21 59.68,-12.22"/>
<text text-anchor="middle" x="78.15" y="-20.45" font-family="Times New Roman,serif" font-size="14.00">a,b</text>
</g>
<!-- start -->
<g id="node4" class="node">
<title>start</title>
</g>
<!-- start&#45;&gt;q1 -->
<g id="edge1" class="edge">
<title>start&#45;&gt;q1</title>
<path fill="none" stroke="black" d="M27,-267.55C27,-259.66 27,-250.09 27,-241.13"/>
<polygon fill="black" stroke="black" points="30.5,-241.01 27,-231.01 23.5,-241.01 30.5,-241.01"/>
</g>
</g>
</svg>
