<?xml version="1.0" encoding="UTF-8" standalone="no"?>
<!DOCTYPE svg PUBLIC "-//W3C//DTD SVG 1.1//EN"
 "http://www.w3.org/Graphics/SVG/1.1/DTD/svg11.dtd">
<!-- Generated by graphviz version 3.0.0 (20220226.1711)
 -->
<!-- Title: name Pages: 1 -->
<svg width="94pt" height="304pt"
 viewBox="0.00 0.00 93.85 304.09" xmlns="http://www.w3.org/2000/svg" xmlns:xlink="http://www.w3.org/1999/xlink">
<g id="graph0" class="graph" transform="scale(1 1) rotate(0) translate(4 300.09)">
<title>name</title>
<polygon fill="white" stroke="transparent" points="-4,4 -4,-300.09 89.85,-300.09 89.85,4 -4,4"/>
<!-- s1 -->
<g id="node1" class="node">
<title>s1</title>
<ellipse fill="none" stroke="black" cx="27" cy="-204.24" rx="18.7" ry="18.7"/>
<text text-anchor="middle" x="27" y="-200.54" font-family="Times New Roman,serif" font-size="14.00">s1</text>
</g>
<!-- s1&#45;&gt;s1 -->
<g id="edge2" class="edge">
<title>s1&#45;&gt;s1</title>
<path fill="none" stroke="black" d="M44.82,-210.67C54.73,-211.87 63.85,-209.73 63.85,-204.24 63.85,-200.81 60.28,-198.69 55.19,-197.87"/>
<polygon fill="black" stroke="black" points="54.84,-194.37 44.82,-197.81 54.8,-201.37 54.84,-194.37"/>
<text text-anchor="middle" x="67.35" y="-200.54" font-family="Times New Roman,serif" font-size="14.00">a</text>
</g>
<!-- s2 -->
<g id="node2" class="node">
<title>s2</title>
<ellipse fill="none" stroke="black" cx="27" cy="-115.54" rx="18.7" ry="18.7"/>
<text text-anchor="middle" x="27" y="-111.84" font-family="Times New Roman,serif" font-size="14.00">s2</text>
</g>
<!-- s1&#45;&gt;s2 -->
<g id="edge3" class="edge">
<title>s1&#45;&gt;s2</title>
<path fill="none" stroke="black" d="M27,-185.28C27,-173.54 27,-157.96 27,-144.6"/>
<polygon fill="black" stroke="black" points="30.5,-144.49 27,-134.49 23.5,-144.49 30.5,-144.49"/>
<text text-anchor="middle" x="31" y="-156.19" font-family="Times New Roman,serif" font-size="14.00">b</text>
</g>
<!-- s2&#45;&gt;s2 -->
<g id="edge4" class="edge">
<title>s2&#45;&gt;s2</title>
<path fill="none" stroke="black" d="M44.44,-123.34C54.49,-124.93 63.85,-122.33 63.85,-115.54 63.85,-111.2 60.01,-108.57 54.6,-107.66"/>
<polygon fill="black" stroke="black" points="54.41,-104.16 44.44,-107.75 54.47,-111.16 54.41,-104.16"/>
<text text-anchor="middle" x="67.35" y="-111.84" font-family="Times New Roman,serif" font-size="14.00">a</text>
</g>
<!-- s3 -->
<g id="node3" class="node">
<title>s3</title>
<ellipse fill="none" stroke="black" cx="27" cy="-22.85" rx="18.72" ry="18.72"/>
<ellipse fill="none" stroke="black" cx="27" cy="-22.85" rx="22.7" ry="22.7"/>
<text text-anchor="middle" x="27" y="-19.15" font-family="Times New Roman,serif" font-size="14.00">s3</text>
</g>
<!-- s2&#45;&gt;s3 -->
<g id="edge5" class="edge">
<title>s2&#45;&gt;s3</title>
<path fill="none" stroke="black" d="M27,-96.63C27,-85.03 27,-69.59 27,-55.92"/>
<polygon fill="black" stroke="black" points="30.5,-55.9 27,-45.9 23.5,-55.9 30.5,-55.9"/>
<text text-anchor="middle" x="31" y="-67.5" font-family="Times New Roman,serif" font-size="14.00">b</text>
</g>
<!-- s3&#45;&gt;s3 -->
<g id="edge6" class="edge">
<title>s3&#45;&gt;s3</title>
<path fill="none" stroke="black" d="M48.44,-31.63C58.75,-32.71 67.85,-29.79 67.85,-22.85 67.85,-18.4 64.11,-15.61 58.72,-14.45"/>
<polygon fill="black" stroke="black" points="58.56,-10.95 48.44,-14.07 58.3,-17.94 58.56,-10.95"/>
<text text-anchor="middle" x="76.85" y="-19.15" font-family="Times New Roman,serif" font-size="14.00">a,b</text>
</g>
<!-- start -->
<g id="node4" class="node">
<title>start</title>
</g>
<!-- start&#45;&gt;s1 -->
<g id="edge1" class="edge">
<title>start&#45;&gt;s1</title>
<path fill="none" stroke="black" d="M27,-260.06C27,-252.07 27,-242.33 27,-233.29"/>
<polygon fill="black" stroke="black" points="30.5,-233.15 27,-223.15 23.5,-233.15 30.5,-233.15"/>
</g>
</g>
</svg>
