<?xml version="1.0" encoding="UTF-8" standalone="no"?>
<!DOCTYPE svg PUBLIC "-//W3C//DTD SVG 1.1//EN"
 "http://www.w3.org/Graphics/SVG/1.1/DTD/svg11.dtd">
<!-- Generated by graphviz version 3.0.0 (20220226.1711)
 -->
<!-- Title: name Pages: 1 -->
<svg width="352pt" height="717pt"
 viewBox="0.00 0.00 352.19 716.96" xmlns="http://www.w3.org/2000/svg" xmlns:xlink="http://www.w3.org/1999/xlink">
<g id="graph0" class="graph" transform="scale(1 1) rotate(0) translate(4 712.96)">
<title>name</title>
<polygon fill="white" stroke="transparent" points="-4,4 -4,-712.96 348.19,-712.96 348.19,4 -4,4"/>
<!-- &lt;s1,q1&gt; -->
<g id="node1" class="node">
<title>&lt;s1,q1&gt;</title>
<ellipse fill="none" stroke="black" cx="161.6" cy="-594.37" rx="41.69" ry="41.69"/>
<text text-anchor="middle" x="161.6" y="-590.67" font-family="Times New Roman,serif" font-size="14.00">&lt;s1,q1&gt;</text>
</g>
<!-- &lt;s1,q2&gt; -->
<g id="node3" class="node">
<title>&lt;s1,q2&gt;</title>
<ellipse fill="none" stroke="black" cx="111.6" cy="-460.17" rx="41.69" ry="41.69"/>
<text text-anchor="middle" x="111.6" y="-456.47" font-family="Times New Roman,serif" font-size="14.00">&lt;s1,q2&gt;</text>
</g>
<!-- &lt;s1,q1&gt;&#45;&gt;&lt;s1,q2&gt; -->
<g id="edge2" class="edge">
<title>&lt;s1,q1&gt;&#45;&gt;&lt;s1,q2&gt;</title>
<path fill="none" stroke="black" d="M147.13,-555.13C141.69,-540.74 135.44,-524.2 129.7,-509.05"/>
<polygon fill="black" stroke="black" points="132.84,-507.44 126.03,-499.32 126.29,-509.92 132.84,-507.44"/>
<text text-anchor="middle" x="142.1" y="-523.57" font-family="Times New Roman,serif" font-size="14.00">a</text>
</g>
<!-- &lt;s2,q1&gt; -->
<g id="node6" class="node">
<title>&lt;s2,q1&gt;</title>
<ellipse fill="none" stroke="black" cx="212.6" cy="-460.17" rx="41.69" ry="41.69"/>
<text text-anchor="middle" x="212.6" y="-456.47" font-family="Times New Roman,serif" font-size="14.00">&lt;s2,q1&gt;</text>
</g>
<!-- &lt;s1,q1&gt;&#45;&gt;&lt;s2,q1&gt; -->
<g id="edge3" class="edge">
<title>&lt;s1,q1&gt;&#45;&gt;&lt;s2,q1&gt;</title>
<path fill="none" stroke="black" d="M176.35,-555.13C181.9,-540.74 188.28,-524.2 194.13,-509.05"/>
<polygon fill="black" stroke="black" points="197.54,-509.91 197.88,-499.32 191.01,-507.39 197.54,-509.91"/>
<text text-anchor="middle" x="192.6" y="-523.57" font-family="Times New Roman,serif" font-size="14.00">b</text>
</g>
<!-- &lt;s2,q3&gt; -->
<g id="node2" class="node">
<title>&lt;s2,q3&gt;</title>
<ellipse fill="none" stroke="black" cx="86.6" cy="-179.79" rx="41.69" ry="41.69"/>
<text text-anchor="middle" x="86.6" y="-176.09" font-family="Times New Roman,serif" font-size="14.00">&lt;s2,q3&gt;</text>
</g>
<!-- &lt;s2,q3&gt;&#45;&gt;&lt;s2,q3&gt; -->
<g id="edge4" class="edge">
<title>&lt;s2,q3&gt;&#45;&gt;&lt;s2,q3&gt;</title>
<path fill="none" stroke="black" d="M126.14,-192.86C137.46,-192.35 146.19,-187.99 146.19,-179.79 146.19,-174.28 142.25,-170.5 136.23,-168.46"/>
<polygon fill="black" stroke="black" points="136.59,-164.97 126.14,-166.72 135.4,-171.87 136.59,-164.97"/>
<text text-anchor="middle" x="149.69" y="-176.09" font-family="Times New Roman,serif" font-size="14.00">a</text>
</g>
<!-- &lt;s3,q3&gt; -->
<g id="node9" class="node">
<title>&lt;s3,q3&gt;</title>
<ellipse fill="none" stroke="black" cx="150.6" cy="-41.6" rx="41.69" ry="41.69"/>
<text text-anchor="middle" x="150.6" y="-37.9" font-family="Times New Roman,serif" font-size="14.00">&lt;s3,q3&gt;</text>
</g>
<!-- &lt;s2,q3&gt;&#45;&gt;&lt;s3,q3&gt; -->
<g id="edge5" class="edge">
<title>&lt;s2,q3&gt;&#45;&gt;&lt;s3,q3&gt;</title>
<path fill="none" stroke="black" d="M103.92,-141.93C111.6,-125.58 120.73,-106.16 128.86,-88.85"/>
<polygon fill="black" stroke="black" points="132.18,-90.02 133.26,-79.48 125.84,-87.04 132.18,-90.02"/>
<text text-anchor="middle" x="126.6" y="-104.99" font-family="Times New Roman,serif" font-size="14.00">b</text>
</g>
<!-- &lt;s2,q2&gt; -->
<g id="node4" class="node">
<title>&lt;s2,q2&gt;</title>
<ellipse fill="none" stroke="black" cx="167.6" cy="-321.98" rx="41.69" ry="41.69"/>
<text text-anchor="middle" x="167.6" y="-318.28" font-family="Times New Roman,serif" font-size="14.00">&lt;s2,q2&gt;</text>
</g>
<!-- &lt;s1,q2&gt;&#45;&gt;&lt;s2,q2&gt; -->
<g id="edge6" class="edge">
<title>&lt;s1,q2&gt;&#45;&gt;&lt;s2,q2&gt;</title>
<path fill="none" stroke="black" d="M127.2,-421.24C133.69,-405.45 141.3,-386.94 148.15,-370.28"/>
<polygon fill="black" stroke="black" points="151.51,-371.3 152.08,-360.72 145.04,-368.63 151.51,-371.3"/>
<text text-anchor="middle" x="145.6" y="-389.38" font-family="Times New Roman,serif" font-size="14.00">b</text>
</g>
<!-- &lt;s1,q3&gt; -->
<g id="node5" class="node">
<title>&lt;s1,q3&gt;</title>
<ellipse fill="none" stroke="black" cx="41.6" cy="-321.98" rx="41.69" ry="41.69"/>
<text text-anchor="middle" x="41.6" y="-318.28" font-family="Times New Roman,serif" font-size="14.00">&lt;s1,q3&gt;</text>
</g>
<!-- &lt;s1,q2&gt;&#45;&gt;&lt;s1,q3&gt; -->
<g id="edge7" class="edge">
<title>&lt;s1,q2&gt;&#45;&gt;&lt;s1,q3&gt;</title>
<path fill="none" stroke="black" d="M92.84,-422.68C84.28,-406.04 74.07,-386.16 65.02,-368.55"/>
<polygon fill="black" stroke="black" points="68.09,-366.87 60.41,-359.58 61.87,-370.07 68.09,-366.87"/>
<text text-anchor="middle" x="85.1" y="-389.38" font-family="Times New Roman,serif" font-size="14.00">a</text>
</g>
<!-- &lt;s2,q2&gt;&#45;&gt;&lt;s2,q3&gt; -->
<g id="edge8" class="edge">
<title>&lt;s2,q2&gt;&#45;&gt;&lt;s2,q3&gt;</title>
<path fill="none" stroke="black" d="M147.16,-285.61C136.51,-267.18 123.39,-244.46 112.08,-224.9"/>
<polygon fill="black" stroke="black" points="115.06,-223.06 107.03,-216.15 109,-226.56 115.06,-223.06"/>
<text text-anchor="middle" x="133.1" y="-247.19" font-family="Times New Roman,serif" font-size="14.00">a</text>
</g>
<!-- &lt;s3,q2&gt; -->
<g id="node8" class="node">
<title>&lt;s3,q2&gt;</title>
<ellipse fill="none" stroke="black" cx="216.6" cy="-179.79" rx="41.68" ry="41.68"/>
<ellipse fill="none" stroke="black" cx="216.6" cy="-179.79" rx="45.69" ry="45.69"/>
<text text-anchor="middle" x="216.6" y="-176.09" font-family="Times New Roman,serif" font-size="14.00">&lt;s3,q2&gt;</text>
</g>
<!-- &lt;s2,q2&gt;&#45;&gt;&lt;s3,q2&gt; -->
<g id="edge9" class="edge">
<title>&lt;s2,q2&gt;&#45;&gt;&lt;s3,q2&gt;</title>
<path fill="none" stroke="black" d="M181.12,-282.3C186.47,-266.99 192.7,-249.16 198.44,-232.75"/>
<polygon fill="black" stroke="black" points="201.75,-233.88 201.74,-223.28 195.14,-231.57 201.75,-233.88"/>
<text text-anchor="middle" x="196.6" y="-247.19" font-family="Times New Roman,serif" font-size="14.00">b</text>
</g>
<!-- &lt;s1,q3&gt;&#45;&gt;&lt;s2,q3&gt; -->
<g id="edge11" class="edge">
<title>&lt;s1,q3&gt;&#45;&gt;&lt;s2,q3&gt;</title>
<path fill="none" stroke="black" d="M54.13,-281.93C59.35,-265.68 65.46,-246.63 70.97,-229.48"/>
<polygon fill="black" stroke="black" points="74.4,-230.22 74.13,-219.63 67.74,-228.08 74.4,-230.22"/>
<text text-anchor="middle" x="69.6" y="-247.19" font-family="Times New Roman,serif" font-size="14.00">b</text>
</g>
<!-- &lt;s1,q3&gt;&#45;&gt;&lt;s1,q3&gt; -->
<g id="edge10" class="edge">
<title>&lt;s1,q3&gt;&#45;&gt;&lt;s1,q3&gt;</title>
<path fill="none" stroke="black" d="M81.14,-335.06C92.46,-334.54 101.19,-330.18 101.19,-321.98 101.19,-316.47 97.25,-312.69 91.23,-310.65"/>
<polygon fill="black" stroke="black" points="91.59,-307.16 81.14,-308.91 90.4,-314.06 91.59,-307.16"/>
<text text-anchor="middle" x="104.69" y="-318.28" font-family="Times New Roman,serif" font-size="14.00">a</text>
</g>
<!-- &lt;s2,q1&gt;&#45;&gt;&lt;s2,q2&gt; -->
<g id="edge12" class="edge">
<title>&lt;s2,q1&gt;&#45;&gt;&lt;s2,q2&gt;</title>
<path fill="none" stroke="black" d="M199.82,-420.51C194.79,-405.27 188.95,-387.6 183.63,-371.51"/>
<polygon fill="black" stroke="black" points="186.86,-370.14 180.4,-361.74 180.22,-372.33 186.86,-370.14"/>
<text text-anchor="middle" x="196.1" y="-389.38" font-family="Times New Roman,serif" font-size="14.00">a</text>
</g>
<!-- &lt;s3,q1&gt; -->
<g id="node7" class="node">
<title>&lt;s3,q1&gt;</title>
<ellipse fill="none" stroke="black" cx="272.6" cy="-321.98" rx="41.68" ry="41.68"/>
<ellipse fill="none" stroke="black" cx="272.6" cy="-321.98" rx="45.69" ry="45.69"/>
<text text-anchor="middle" x="272.6" y="-318.28" font-family="Times New Roman,serif" font-size="14.00">&lt;s3,q1&gt;</text>
</g>
<!-- &lt;s2,q1&gt;&#45;&gt;&lt;s3,q1&gt; -->
<g id="edge13" class="edge">
<title>&lt;s2,q1&gt;&#45;&gt;&lt;s3,q1&gt;</title>
<path fill="none" stroke="black" d="M229.15,-421.6C235.7,-406.72 243.34,-389.4 250.36,-373.46"/>
<polygon fill="black" stroke="black" points="253.58,-374.82 254.41,-364.26 247.18,-372 253.58,-374.82"/>
<text text-anchor="middle" x="247.6" y="-389.38" font-family="Times New Roman,serif" font-size="14.00">b</text>
</g>
<!-- &lt;s3,q1&gt;&#45;&gt;&lt;s3,q1&gt; -->
<g id="edge15" class="edge">
<title>&lt;s3,q1&gt;&#45;&gt;&lt;s3,q1&gt;</title>
<path fill="none" stroke="black" d="M316.59,-334.95C327.79,-334.1 336.19,-329.77 336.19,-321.98 336.19,-316.75 332.4,-313.08 326.51,-310.97"/>
<polygon fill="black" stroke="black" points="327.07,-307.52 316.59,-309.01 325.72,-314.38 327.07,-307.52"/>
<text text-anchor="middle" x="340.19" y="-318.28" font-family="Times New Roman,serif" font-size="14.00">b</text>
</g>
<!-- &lt;s3,q1&gt;&#45;&gt;&lt;s3,q2&gt; -->
<g id="edge14" class="edge">
<title>&lt;s3,q1&gt;&#45;&gt;&lt;s3,q2&gt;</title>
<path fill="none" stroke="black" d="M255.95,-279.3C250.02,-264.46 243.27,-247.58 237.06,-232.03"/>
<polygon fill="black" stroke="black" points="240.24,-230.54 233.28,-222.55 233.74,-233.14 240.24,-230.54"/>
<text text-anchor="middle" x="249.1" y="-247.19" font-family="Times New Roman,serif" font-size="14.00">a</text>
</g>
<!-- &lt;s3,q2&gt;&#45;&gt;&lt;s3,q2&gt; -->
<g id="edge17" class="edge">
<title>&lt;s3,q2&gt;&#45;&gt;&lt;s3,q2&gt;</title>
<path fill="none" stroke="black" d="M260.59,-192.76C271.79,-191.9 280.19,-187.58 280.19,-179.79 280.19,-174.55 276.4,-170.88 270.51,-168.78"/>
<polygon fill="black" stroke="black" points="271.07,-165.32 260.59,-166.82 269.72,-172.19 271.07,-165.32"/>
<text text-anchor="middle" x="284.19" y="-176.09" font-family="Times New Roman,serif" font-size="14.00">b</text>
</g>
<!-- &lt;s3,q2&gt;&#45;&gt;&lt;s3,q3&gt; -->
<g id="edge16" class="edge">
<title>&lt;s3,q2&gt;&#45;&gt;&lt;s3,q3&gt;</title>
<path fill="none" stroke="black" d="M196.97,-138.3C189.41,-122.7 180.73,-104.77 172.93,-88.68"/>
<polygon fill="black" stroke="black" points="175.97,-86.92 168.46,-79.45 169.67,-89.98 175.97,-86.92"/>
<text text-anchor="middle" x="188.1" y="-104.99" font-family="Times New Roman,serif" font-size="14.00">a</text>
</g>
<!-- &lt;s3,q3&gt;&#45;&gt;&lt;s3,q3&gt; -->
<g id="edge18" class="edge">
<title>&lt;s3,q3&gt;&#45;&gt;&lt;s3,q3&gt;</title>
<path fill="none" stroke="black" d="M190.42,-53.91C201.61,-53.37 210.19,-49.27 210.19,-41.6 210.19,-36.44 206.32,-32.9 200.38,-30.96"/>
<polygon fill="black" stroke="black" points="200.87,-27.5 190.42,-29.28 199.7,-34.4 200.87,-27.5"/>
<text text-anchor="middle" x="219.19" y="-37.9" font-family="Times New Roman,serif" font-size="14.00">a,b</text>
</g>
<!-- start -->
<g id="node10" class="node">
<title>start</title>
</g>
<!-- start&#45;&gt;&lt;s1,q1&gt; -->
<g id="edge1" class="edge">
<title>start&#45;&gt;&lt;s1,q1&gt;</title>
<path fill="none" stroke="black" d="M161.6,-672.61C161.6,-665.09 161.6,-655.86 161.6,-646.42"/>
<polygon fill="black" stroke="black" points="165.1,-646.17 161.6,-636.17 158.1,-646.17 165.1,-646.17"/>
</g>
</g>
</svg>
