<?xml version="1.0" encoding="UTF-8" standalone="no"?>
<!DOCTYPE svg PUBLIC "-//W3C//DTD SVG 1.1//EN"
 "http://www.w3.org/Graphics/SVG/1.1/DTD/svg11.dtd">
<!-- Generated by graphviz version 3.0.0 (20220226.1711)
 -->
<!-- Title: name Pages: 1 -->
<svg width="360pt" height="725pt"
 viewBox="0.00 0.00 360.19 724.96" xmlns="http://www.w3.org/2000/svg" xmlns:xlink="http://www.w3.org/1999/xlink">
<g id="graph0" class="graph" transform="scale(1 1) rotate(0) translate(4 720.96)">
<title>name</title>
<polygon fill="white" stroke="transparent" points="-4,4 -4,-720.96 356.19,-720.96 356.19,4 -4,4"/>
<!-- &lt;q1,s1&gt; -->
<g id="node1" class="node">
<title>&lt;q1,s1&gt;</title>
<ellipse fill="none" stroke="black" cx="171.6" cy="-602.37" rx="41.69" ry="41.69"/>
<text text-anchor="middle" x="171.6" y="-598.67" font-family="Times New Roman,serif" font-size="14.00">&lt;q1,s1&gt;</text>
</g>
<!-- &lt;q1,s2&gt; -->
<g id="node3" class="node">
<title>&lt;q1,s2&gt;</title>
<ellipse fill="none" stroke="black" cx="121.6" cy="-468.17" rx="41.69" ry="41.69"/>
<text text-anchor="middle" x="121.6" y="-464.47" font-family="Times New Roman,serif" font-size="14.00">&lt;q1,s2&gt;</text>
</g>
<!-- &lt;q1,s1&gt;&#45;&gt;&lt;q1,s2&gt; -->
<g id="edge3" class="edge">
<title>&lt;q1,s1&gt;&#45;&gt;&lt;q1,s2&gt;</title>
<path fill="none" stroke="black" d="M157.13,-563.13C151.69,-548.74 145.44,-532.2 139.7,-517.05"/>
<polygon fill="black" stroke="black" points="142.84,-515.44 136.03,-507.32 136.29,-517.92 142.84,-515.44"/>
<text text-anchor="middle" x="152.6" y="-531.57" font-family="Times New Roman,serif" font-size="14.00">b</text>
</g>
<!-- &lt;q2,s1&gt; -->
<g id="node6" class="node">
<title>&lt;q2,s1&gt;</title>
<ellipse fill="none" stroke="black" cx="222.6" cy="-468.17" rx="41.69" ry="41.69"/>
<text text-anchor="middle" x="222.6" y="-464.47" font-family="Times New Roman,serif" font-size="14.00">&lt;q2,s1&gt;</text>
</g>
<!-- &lt;q1,s1&gt;&#45;&gt;&lt;q2,s1&gt; -->
<g id="edge2" class="edge">
<title>&lt;q1,s1&gt;&#45;&gt;&lt;q2,s1&gt;</title>
<path fill="none" stroke="black" d="M186.35,-563.13C191.9,-548.74 198.28,-532.2 204.13,-517.05"/>
<polygon fill="black" stroke="black" points="207.54,-517.91 207.88,-507.32 201.01,-515.39 207.54,-517.91"/>
<text text-anchor="middle" x="202.1" y="-531.57" font-family="Times New Roman,serif" font-size="14.00">a</text>
</g>
<!-- &lt;q2,s3&gt; -->
<g id="node2" class="node">
<title>&lt;q2,s3&gt;</title>
<ellipse fill="none" stroke="black" cx="92.6" cy="-187.79" rx="41.68" ry="41.68"/>
<ellipse fill="none" stroke="black" cx="92.6" cy="-187.79" rx="45.69" ry="45.69"/>
<text text-anchor="middle" x="92.6" y="-184.09" font-family="Times New Roman,serif" font-size="14.00">&lt;q2,s3&gt;</text>
</g>
<!-- &lt;q2,s3&gt;&#45;&gt;&lt;q2,s3&gt; -->
<g id="edge5" class="edge">
<title>&lt;q2,s3&gt;&#45;&gt;&lt;q2,s3&gt;</title>
<path fill="none" stroke="black" d="M136.59,-200.76C147.79,-199.9 156.19,-195.58 156.19,-187.79 156.19,-182.55 152.4,-178.88 146.51,-176.78"/>
<polygon fill="black" stroke="black" points="147.07,-173.32 136.59,-174.82 145.72,-180.19 147.07,-173.32"/>
<text text-anchor="middle" x="160.19" y="-184.09" font-family="Times New Roman,serif" font-size="14.00">b</text>
</g>
<!-- &lt;q3,s3&gt; -->
<g id="node9" class="node">
<title>&lt;q3,s3&gt;</title>
<ellipse fill="none" stroke="black" cx="159.6" cy="-45.6" rx="41.68" ry="41.68"/>
<ellipse fill="none" stroke="black" cx="159.6" cy="-45.6" rx="45.69" ry="45.69"/>
<text text-anchor="middle" x="159.6" y="-41.9" font-family="Times New Roman,serif" font-size="14.00">&lt;q3,s3&gt;</text>
</g>
<!-- &lt;q2,s3&gt;&#45;&gt;&lt;q3,s3&gt; -->
<g id="edge4" class="edge">
<title>&lt;q2,s3&gt;&#45;&gt;&lt;q3,s3&gt;</title>
<path fill="none" stroke="black" d="M111.98,-146.24C119.41,-130.69 127.97,-112.77 135.77,-96.45"/>
<polygon fill="black" stroke="black" points="139.11,-97.59 140.26,-87.05 132.79,-94.57 139.11,-97.59"/>
<text text-anchor="middle" x="132.1" y="-112.99" font-family="Times New Roman,serif" font-size="14.00">a</text>
</g>
<!-- &lt;q2,s2&gt; -->
<g id="node4" class="node">
<title>&lt;q2,s2&gt;</title>
<ellipse fill="none" stroke="black" cx="176.6" cy="-329.98" rx="41.69" ry="41.69"/>
<text text-anchor="middle" x="176.6" y="-326.28" font-family="Times New Roman,serif" font-size="14.00">&lt;q2,s2&gt;</text>
</g>
<!-- &lt;q1,s2&gt;&#45;&gt;&lt;q2,s2&gt; -->
<g id="edge7" class="edge">
<title>&lt;q1,s2&gt;&#45;&gt;&lt;q2,s2&gt;</title>
<path fill="none" stroke="black" d="M136.92,-429.24C143.29,-413.45 150.77,-394.94 157.5,-378.28"/>
<polygon fill="black" stroke="black" points="160.86,-379.3 161.36,-368.72 154.37,-376.68 160.86,-379.3"/>
<text text-anchor="middle" x="155.1" y="-397.38" font-family="Times New Roman,serif" font-size="14.00">a</text>
</g>
<!-- &lt;q1,s3&gt; -->
<g id="node5" class="node">
<title>&lt;q1,s3&gt;</title>
<ellipse fill="none" stroke="black" cx="45.6" cy="-329.98" rx="41.68" ry="41.68"/>
<ellipse fill="none" stroke="black" cx="45.6" cy="-329.98" rx="45.69" ry="45.69"/>
<text text-anchor="middle" x="45.6" y="-326.28" font-family="Times New Roman,serif" font-size="14.00">&lt;q1,s3&gt;</text>
</g>
<!-- &lt;q1,s2&gt;&#45;&gt;&lt;q1,s3&gt; -->
<g id="edge6" class="edge">
<title>&lt;q1,s2&gt;&#45;&gt;&lt;q1,s3&gt;</title>
<path fill="none" stroke="black" d="M101.63,-431.39C92.71,-415.42 82.08,-396.36 72.48,-379.16"/>
<polygon fill="black" stroke="black" points="75.5,-377.38 67.57,-370.36 69.39,-380.79 75.5,-377.38"/>
<text text-anchor="middle" x="92.6" y="-397.38" font-family="Times New Roman,serif" font-size="14.00">b</text>
</g>
<!-- &lt;q2,s2&gt;&#45;&gt;&lt;q2,s3&gt; -->
<g id="edge9" class="edge">
<title>&lt;q2,s2&gt;&#45;&gt;&lt;q2,s3&gt;</title>
<path fill="none" stroke="black" d="M155.62,-293.97C145.13,-276.46 132.29,-255.03 120.94,-236.09"/>
<polygon fill="black" stroke="black" points="123.81,-234.08 115.67,-227.3 117.81,-237.68 123.81,-234.08"/>
<text text-anchor="middle" x="141.6" y="-255.19" font-family="Times New Roman,serif" font-size="14.00">b</text>
</g>
<!-- &lt;q3,s2&gt; -->
<g id="node8" class="node">
<title>&lt;q3,s2&gt;</title>
<ellipse fill="none" stroke="black" cx="227.6" cy="-187.79" rx="41.68" ry="41.68"/>
<ellipse fill="none" stroke="black" cx="227.6" cy="-187.79" rx="45.69" ry="45.69"/>
<text text-anchor="middle" x="227.6" y="-184.09" font-family="Times New Roman,serif" font-size="14.00">&lt;q3,s2&gt;</text>
</g>
<!-- &lt;q2,s2&gt;&#45;&gt;&lt;q3,s2&gt; -->
<g id="edge8" class="edge">
<title>&lt;q2,s2&gt;&#45;&gt;&lt;q3,s2&gt;</title>
<path fill="none" stroke="black" d="M190.53,-290.67C196.15,-275.22 202.73,-257.16 208.76,-240.56"/>
<polygon fill="black" stroke="black" points="212.11,-241.59 212.24,-230.99 205.53,-239.19 212.11,-241.59"/>
<text text-anchor="middle" x="207.1" y="-255.19" font-family="Times New Roman,serif" font-size="14.00">a</text>
</g>
<!-- &lt;q1,s3&gt;&#45;&gt;&lt;q2,s3&gt; -->
<g id="edge10" class="edge">
<title>&lt;q1,s3&gt;&#45;&gt;&lt;q2,s3&gt;</title>
<path fill="none" stroke="black" d="M59.83,-286.54C64.61,-272.26 70.01,-256.16 75.02,-241.2"/>
<polygon fill="black" stroke="black" points="78.39,-242.17 78.25,-231.57 71.76,-239.94 78.39,-242.17"/>
<text text-anchor="middle" x="74.1" y="-255.19" font-family="Times New Roman,serif" font-size="14.00">a</text>
</g>
<!-- &lt;q1,s3&gt;&#45;&gt;&lt;q1,s3&gt; -->
<g id="edge11" class="edge">
<title>&lt;q1,s3&gt;&#45;&gt;&lt;q1,s3&gt;</title>
<path fill="none" stroke="black" d="M89.59,-342.95C100.79,-342.1 109.19,-337.77 109.19,-329.98 109.19,-324.75 105.4,-321.08 99.51,-318.97"/>
<polygon fill="black" stroke="black" points="100.07,-315.52 89.59,-317.01 98.72,-322.38 100.07,-315.52"/>
<text text-anchor="middle" x="113.19" y="-326.28" font-family="Times New Roman,serif" font-size="14.00">b</text>
</g>
<!-- &lt;q2,s1&gt;&#45;&gt;&lt;q2,s2&gt; -->
<g id="edge13" class="edge">
<title>&lt;q2,s1&gt;&#45;&gt;&lt;q2,s2&gt;</title>
<path fill="none" stroke="black" d="M209.54,-428.51C204.39,-413.27 198.42,-395.6 192.99,-379.51"/>
<polygon fill="black" stroke="black" points="196.2,-378.1 189.69,-369.74 189.57,-380.34 196.2,-378.1"/>
<text text-anchor="middle" x="205.6" y="-397.38" font-family="Times New Roman,serif" font-size="14.00">b</text>
</g>
<!-- &lt;q3,s1&gt; -->
<g id="node7" class="node">
<title>&lt;q3,s1&gt;</title>
<ellipse fill="none" stroke="black" cx="281.6" cy="-329.98" rx="41.68" ry="41.68"/>
<ellipse fill="none" stroke="black" cx="281.6" cy="-329.98" rx="45.69" ry="45.69"/>
<text text-anchor="middle" x="281.6" y="-326.28" font-family="Times New Roman,serif" font-size="14.00">&lt;q3,s1&gt;</text>
</g>
<!-- &lt;q2,s1&gt;&#45;&gt;&lt;q3,s1&gt; -->
<g id="edge12" class="edge">
<title>&lt;q2,s1&gt;&#45;&gt;&lt;q3,s1&gt;</title>
<path fill="none" stroke="black" d="M238.87,-429.6C245.32,-414.72 252.82,-397.4 259.73,-381.46"/>
<polygon fill="black" stroke="black" points="262.95,-382.83 263.71,-372.26 256.53,-380.05 262.95,-382.83"/>
<text text-anchor="middle" x="257.1" y="-397.38" font-family="Times New Roman,serif" font-size="14.00">a</text>
</g>
<!-- &lt;q3,s1&gt;&#45;&gt;&lt;q3,s1&gt; -->
<g id="edge14" class="edge">
<title>&lt;q3,s1&gt;&#45;&gt;&lt;q3,s1&gt;</title>
<path fill="none" stroke="black" d="M325.59,-342.95C336.79,-342.1 345.19,-337.77 345.19,-329.98 345.19,-324.75 341.4,-321.08 335.51,-318.97"/>
<polygon fill="black" stroke="black" points="336.07,-315.52 325.59,-317.01 334.72,-322.38 336.07,-315.52"/>
<text text-anchor="middle" x="348.69" y="-326.28" font-family="Times New Roman,serif" font-size="14.00">a</text>
</g>
<!-- &lt;q3,s1&gt;&#45;&gt;&lt;q3,s2&gt; -->
<g id="edge15" class="edge">
<title>&lt;q3,s1&gt;&#45;&gt;&lt;q3,s2&gt;</title>
<path fill="none" stroke="black" d="M265.54,-287.3C259.83,-272.46 253.32,-255.58 247.33,-240.03"/>
<polygon fill="black" stroke="black" points="250.54,-238.63 243.68,-230.55 244.01,-241.14 250.54,-238.63"/>
<text text-anchor="middle" x="259.6" y="-255.19" font-family="Times New Roman,serif" font-size="14.00">b</text>
</g>
<!-- &lt;q3,s2&gt;&#45;&gt;&lt;q3,s2&gt; -->
<g id="edge16" class="edge">
<title>&lt;q3,s2&gt;&#45;&gt;&lt;q3,s2&gt;</title>
<path fill="none" stroke="black" d="M271.59,-200.76C282.79,-199.9 291.19,-195.58 291.19,-187.79 291.19,-182.55 287.4,-178.88 281.51,-176.78"/>
<polygon fill="black" stroke="black" points="282.07,-173.32 271.59,-174.82 280.72,-180.19 282.07,-173.32"/>
<text text-anchor="middle" x="294.69" y="-184.09" font-family="Times New Roman,serif" font-size="14.00">a</text>
</g>
<!-- &lt;q3,s2&gt;&#45;&gt;&lt;q3,s3&gt; -->
<g id="edge17" class="edge">
<title>&lt;q3,s2&gt;&#45;&gt;&lt;q3,s3&gt;</title>
<path fill="none" stroke="black" d="M207.93,-146.24C200.39,-130.69 191.69,-112.77 183.78,-96.45"/>
<polygon fill="black" stroke="black" points="186.73,-94.52 179.22,-87.05 180.44,-97.58 186.73,-94.52"/>
<text text-anchor="middle" x="199.6" y="-112.99" font-family="Times New Roman,serif" font-size="14.00">b</text>
</g>
<!-- &lt;q3,s3&gt;&#45;&gt;&lt;q3,s3&gt; -->
<g id="edge18" class="edge">
<title>&lt;q3,s3&gt;&#45;&gt;&lt;q3,s3&gt;</title>
<path fill="none" stroke="black" d="M203.59,-58.56C214.79,-57.71 223.19,-53.39 223.19,-45.6 223.19,-40.36 219.4,-36.69 213.51,-34.59"/>
<polygon fill="black" stroke="black" points="214.07,-31.13 203.59,-32.63 212.72,-38 214.07,-31.13"/>
<text text-anchor="middle" x="232.19" y="-41.9" font-family="Times New Roman,serif" font-size="14.00">a,b</text>
</g>
<!-- start -->
<g id="node10" class="node">
<title>start</title>
</g>
<!-- start&#45;&gt;&lt;q1,s1&gt; -->
<g id="edge1" class="edge">
<title>start&#45;&gt;&lt;q1,s1&gt;</title>
<path fill="none" stroke="black" d="M171.6,-680.61C171.6,-673.09 171.6,-663.86 171.6,-654.42"/>
<polygon fill="black" stroke="black" points="175.1,-654.17 171.6,-644.17 168.1,-654.17 175.1,-654.17"/>
</g>
</g>
</svg>
