<?xml version="1.0" encoding="UTF-8" standalone="no"?>
<!DOCTYPE svg PUBLIC "-//W3C//DTD SVG 1.1//EN"
 "http://www.w3.org/Graphics/SVG/1.1/DTD/svg11.dtd">
<!-- Generated by graphviz version 3.0.0 (20220226.1711)
 -->
<!-- Title: name Pages: 1 -->
<svg width="344pt" height="709pt"
 viewBox="0.00 0.00 344.19 708.96" xmlns="http://www.w3.org/2000/svg" xmlns:xlink="http://www.w3.org/1999/xlink">
<g id="graph0" class="graph" transform="scale(1 1) rotate(0) translate(4 704.96)">
<title>name</title>
<polygon fill="white" stroke="transparent" points="-4,4 -4,-704.96 340.19,-704.96 340.19,4 -4,4"/>
<!-- &lt;q1,s1&gt; -->
<g id="node1" class="node">
<title>&lt;q1,s1&gt;</title>
<ellipse fill="none" stroke="black" cx="162.6" cy="-586.37" rx="41.69" ry="41.69"/>
<text text-anchor="middle" x="162.6" y="-582.67" font-family="Times New Roman,serif" font-size="14.00">&lt;q1,s1&gt;</text>
</g>
<!-- &lt;q1,s2&gt; -->
<g id="node2" class="node">
<title>&lt;q1,s2&gt;</title>
<ellipse fill="none" stroke="black" cx="112.6" cy="-452.17" rx="41.69" ry="41.69"/>
<text text-anchor="middle" x="112.6" y="-448.47" font-family="Times New Roman,serif" font-size="14.00">&lt;q1,s2&gt;</text>
</g>
<!-- &lt;q1,s1&gt;&#45;&gt;&lt;q1,s2&gt; -->
<g id="edge3" class="edge">
<title>&lt;q1,s1&gt;&#45;&gt;&lt;q1,s2&gt;</title>
<path fill="none" stroke="black" d="M148.13,-547.13C142.69,-532.74 136.44,-516.2 130.7,-501.05"/>
<polygon fill="black" stroke="black" points="133.84,-499.44 127.03,-491.32 127.29,-501.92 133.84,-499.44"/>
<text text-anchor="middle" x="143.6" y="-515.57" font-family="Times New Roman,serif" font-size="14.00">b</text>
</g>
<!-- &lt;q2,s1&gt; -->
<g id="node6" class="node">
<title>&lt;q2,s1&gt;</title>
<ellipse fill="none" stroke="black" cx="213.6" cy="-452.17" rx="41.69" ry="41.69"/>
<text text-anchor="middle" x="213.6" y="-448.47" font-family="Times New Roman,serif" font-size="14.00">&lt;q2,s1&gt;</text>
</g>
<!-- &lt;q1,s1&gt;&#45;&gt;&lt;q2,s1&gt; -->
<g id="edge2" class="edge">
<title>&lt;q1,s1&gt;&#45;&gt;&lt;q2,s1&gt;</title>
<path fill="none" stroke="black" d="M177.35,-547.13C182.9,-532.74 189.28,-516.2 195.13,-501.05"/>
<polygon fill="black" stroke="black" points="198.54,-501.91 198.88,-491.32 192.01,-499.39 198.54,-501.91"/>
<text text-anchor="middle" x="193.1" y="-515.57" font-family="Times New Roman,serif" font-size="14.00">a</text>
</g>
<!-- &lt;q1,s3&gt; -->
<g id="node4" class="node">
<title>&lt;q1,s3&gt;</title>
<ellipse fill="none" stroke="black" cx="41.6" cy="-317.98" rx="41.69" ry="41.69"/>
<text text-anchor="middle" x="41.6" y="-314.28" font-family="Times New Roman,serif" font-size="14.00">&lt;q1,s3&gt;</text>
</g>
<!-- &lt;q1,s2&gt;&#45;&gt;&lt;q1,s3&gt; -->
<g id="edge4" class="edge">
<title>&lt;q1,s2&gt;&#45;&gt;&lt;q1,s3&gt;</title>
<path fill="none" stroke="black" d="M93.2,-415.05C84.74,-399.31 74.74,-380.7 65.81,-364.07"/>
<polygon fill="black" stroke="black" points="68.79,-362.21 60.97,-355.06 62.62,-365.53 68.79,-362.21"/>
<text text-anchor="middle" x="83.6" y="-381.38" font-family="Times New Roman,serif" font-size="14.00">b</text>
</g>
<!-- &lt;q2,s2&gt; -->
<g id="node5" class="node">
<title>&lt;q2,s2&gt;</title>
<ellipse fill="none" stroke="black" cx="168.6" cy="-317.98" rx="41.69" ry="41.69"/>
<text text-anchor="middle" x="168.6" y="-314.28" font-family="Times New Roman,serif" font-size="14.00">&lt;q2,s2&gt;</text>
</g>
<!-- &lt;q1,s2&gt;&#45;&gt;&lt;q2,s2&gt; -->
<g id="edge5" class="edge">
<title>&lt;q1,s2&gt;&#45;&gt;&lt;q2,s2&gt;</title>
<path fill="none" stroke="black" d="M128.49,-413.65C134.76,-398.85 142.03,-381.7 148.64,-366.09"/>
<polygon fill="black" stroke="black" points="151.98,-367.18 152.66,-356.6 145.54,-364.45 151.98,-367.18"/>
<text text-anchor="middle" x="146.1" y="-381.38" font-family="Times New Roman,serif" font-size="14.00">a</text>
</g>
<!-- &lt;q2,s3&gt; -->
<g id="node3" class="node">
<title>&lt;q2,s3&gt;</title>
<ellipse fill="none" stroke="black" cx="91.6" cy="-183.79" rx="41.69" ry="41.69"/>
<text text-anchor="middle" x="91.6" y="-180.09" font-family="Times New Roman,serif" font-size="14.00">&lt;q2,s3&gt;</text>
</g>
<!-- &lt;q2,s3&gt;&#45;&gt;&lt;q2,s3&gt; -->
<g id="edge7" class="edge">
<title>&lt;q2,s3&gt;&#45;&gt;&lt;q2,s3&gt;</title>
<path fill="none" stroke="black" d="M131.42,-196.1C142.61,-195.56 151.19,-191.46 151.19,-183.79 151.19,-178.64 147.32,-175.09 141.38,-173.16"/>
<polygon fill="black" stroke="black" points="141.87,-169.69 131.42,-171.48 140.7,-176.59 141.87,-169.69"/>
<text text-anchor="middle" x="155.19" y="-180.09" font-family="Times New Roman,serif" font-size="14.00">b</text>
</g>
<!-- &lt;q3,s3&gt; -->
<g id="node9" class="node">
<title>&lt;q3,s3&gt;</title>
<ellipse fill="none" stroke="black" cx="154.6" cy="-45.6" rx="41.68" ry="41.68"/>
<ellipse fill="none" stroke="black" cx="154.6" cy="-45.6" rx="45.69" ry="45.69"/>
<text text-anchor="middle" x="154.6" y="-41.9" font-family="Times New Roman,serif" font-size="14.00">&lt;q3,s3&gt;</text>
</g>
<!-- &lt;q2,s3&gt;&#45;&gt;&lt;q3,s3&gt; -->
<g id="edge6" class="edge">
<title>&lt;q2,s3&gt;&#45;&gt;&lt;q3,s3&gt;</title>
<path fill="none" stroke="black" d="M108.81,-145.57C115.76,-130.56 123.87,-113.01 131.33,-96.89"/>
<polygon fill="black" stroke="black" points="134.61,-98.14 135.63,-87.6 128.26,-95.2 134.61,-98.14"/>
<text text-anchor="middle" x="129.1" y="-112.99" font-family="Times New Roman,serif" font-size="14.00">a</text>
</g>
<!-- &lt;q1,s3&gt;&#45;&gt;&lt;q2,s3&gt; -->
<g id="edge8" class="edge">
<title>&lt;q1,s3&gt;&#45;&gt;&lt;q2,s3&gt;</title>
<path fill="none" stroke="black" d="M56.06,-278.75C61.5,-264.36 67.76,-247.82 73.49,-232.66"/>
<polygon fill="black" stroke="black" points="76.9,-233.53 77.17,-222.94 70.36,-231.05 76.9,-233.53"/>
<text text-anchor="middle" x="72.1" y="-247.19" font-family="Times New Roman,serif" font-size="14.00">a</text>
</g>
<!-- &lt;q1,s3&gt;&#45;&gt;&lt;q1,s3&gt; -->
<g id="edge9" class="edge">
<title>&lt;q1,s3&gt;&#45;&gt;&lt;q1,s3&gt;</title>
<path fill="none" stroke="black" d="M81.42,-330.3C92.61,-329.76 101.19,-325.65 101.19,-317.98 101.19,-312.83 97.32,-309.28 91.38,-307.35"/>
<polygon fill="black" stroke="black" points="91.87,-303.88 81.42,-305.67 90.7,-310.78 91.87,-303.88"/>
<text text-anchor="middle" x="105.19" y="-314.28" font-family="Times New Roman,serif" font-size="14.00">b</text>
</g>
<!-- &lt;q2,s2&gt;&#45;&gt;&lt;q2,s3&gt; -->
<g id="edge11" class="edge">
<title>&lt;q2,s2&gt;&#45;&gt;&lt;q2,s3&gt;</title>
<path fill="none" stroke="black" d="M147.96,-281.56C138.55,-265.41 127.32,-246.11 117.36,-229.02"/>
<polygon fill="black" stroke="black" points="120.35,-227.19 112.29,-220.31 114.3,-230.71 120.35,-227.19"/>
<text text-anchor="middle" x="136.6" y="-247.19" font-family="Times New Roman,serif" font-size="14.00">b</text>
</g>
<!-- &lt;q3,s2&gt; -->
<g id="node8" class="node">
<title>&lt;q3,s2&gt;</title>
<ellipse fill="none" stroke="black" cx="218.6" cy="-183.79" rx="41.69" ry="41.69"/>
<text text-anchor="middle" x="218.6" y="-180.09" font-family="Times New Roman,serif" font-size="14.00">&lt;q3,s2&gt;</text>
</g>
<!-- &lt;q2,s2&gt;&#45;&gt;&lt;q3,s2&gt; -->
<g id="edge10" class="edge">
<title>&lt;q2,s2&gt;&#45;&gt;&lt;q3,s2&gt;</title>
<path fill="none" stroke="black" d="M183.06,-278.75C188.5,-264.36 194.76,-247.82 200.49,-232.66"/>
<polygon fill="black" stroke="black" points="203.9,-233.53 204.17,-222.94 197.36,-231.05 203.9,-233.53"/>
<text text-anchor="middle" x="198.1" y="-247.19" font-family="Times New Roman,serif" font-size="14.00">a</text>
</g>
<!-- &lt;q2,s1&gt;&#45;&gt;&lt;q2,s2&gt; -->
<g id="edge13" class="edge">
<title>&lt;q2,s1&gt;&#45;&gt;&lt;q2,s2&gt;</title>
<path fill="none" stroke="black" d="M200.46,-412.58C195.65,-398.45 190.15,-382.29 185.08,-367.41"/>
<polygon fill="black" stroke="black" points="188.36,-366.19 181.83,-357.85 181.74,-368.44 188.36,-366.19"/>
<text text-anchor="middle" x="195.6" y="-381.38" font-family="Times New Roman,serif" font-size="14.00">b</text>
</g>
<!-- &lt;q3,s1&gt; -->
<g id="node7" class="node">
<title>&lt;q3,s1&gt;</title>
<ellipse fill="none" stroke="black" cx="269.6" cy="-317.98" rx="41.69" ry="41.69"/>
<text text-anchor="middle" x="269.6" y="-314.28" font-family="Times New Roman,serif" font-size="14.00">&lt;q3,s1&gt;</text>
</g>
<!-- &lt;q2,s1&gt;&#45;&gt;&lt;q3,s1&gt; -->
<g id="edge12" class="edge">
<title>&lt;q2,s1&gt;&#45;&gt;&lt;q3,s1&gt;</title>
<path fill="none" stroke="black" d="M229.49,-413.65C235.76,-398.85 243.03,-381.7 249.64,-366.09"/>
<polygon fill="black" stroke="black" points="252.98,-367.18 253.66,-356.6 246.54,-364.45 252.98,-367.18"/>
<text text-anchor="middle" x="246.1" y="-381.38" font-family="Times New Roman,serif" font-size="14.00">a</text>
</g>
<!-- &lt;q3,s1&gt;&#45;&gt;&lt;q3,s1&gt; -->
<g id="edge14" class="edge">
<title>&lt;q3,s1&gt;&#45;&gt;&lt;q3,s1&gt;</title>
<path fill="none" stroke="black" d="M309.42,-330.3C320.61,-329.76 329.19,-325.65 329.19,-317.98 329.19,-312.83 325.32,-309.28 319.38,-307.35"/>
<polygon fill="black" stroke="black" points="319.87,-303.88 309.42,-305.67 318.7,-310.78 319.87,-303.88"/>
<text text-anchor="middle" x="332.69" y="-314.28" font-family="Times New Roman,serif" font-size="14.00">a</text>
</g>
<!-- &lt;q3,s1&gt;&#45;&gt;&lt;q3,s2&gt; -->
<g id="edge15" class="edge">
<title>&lt;q3,s1&gt;&#45;&gt;&lt;q3,s2&gt;</title>
<path fill="none" stroke="black" d="M254.84,-278.75C249.29,-264.36 242.91,-247.82 237.07,-232.66"/>
<polygon fill="black" stroke="black" points="240.18,-231.01 233.31,-222.94 233.65,-233.53 240.18,-231.01"/>
<text text-anchor="middle" x="249.6" y="-247.19" font-family="Times New Roman,serif" font-size="14.00">b</text>
</g>
<!-- &lt;q3,s2&gt;&#45;&gt;&lt;q3,s2&gt; -->
<g id="edge16" class="edge">
<title>&lt;q3,s2&gt;&#45;&gt;&lt;q3,s2&gt;</title>
<path fill="none" stroke="black" d="M258.42,-196.1C269.61,-195.56 278.19,-191.46 278.19,-183.79 278.19,-178.64 274.32,-175.09 268.38,-173.16"/>
<polygon fill="black" stroke="black" points="268.87,-169.69 258.42,-171.48 267.7,-176.59 268.87,-169.69"/>
<text text-anchor="middle" x="281.69" y="-180.09" font-family="Times New Roman,serif" font-size="14.00">a</text>
</g>
<!-- &lt;q3,s2&gt;&#45;&gt;&lt;q3,s3&gt; -->
<g id="edge17" class="edge">
<title>&lt;q3,s2&gt;&#45;&gt;&lt;q3,s3&gt;</title>
<path fill="none" stroke="black" d="M201.28,-145.93C194.16,-130.79 185.8,-113.01 178.15,-96.71"/>
<polygon fill="black" stroke="black" points="181.15,-94.88 173.73,-87.32 174.82,-97.85 181.15,-94.88"/>
<text text-anchor="middle" x="193.6" y="-112.99" font-family="Times New Roman,serif" font-size="14.00">b</text>
</g>
<!-- &lt;q3,s3&gt;&#45;&gt;&lt;q3,s3&gt; -->
<g id="edge18" class="edge">
<title>&lt;q3,s3&gt;&#45;&gt;&lt;q3,s3&gt;</title>
<path fill="none" stroke="black" d="M198.59,-58.56C209.79,-57.71 218.19,-53.39 218.19,-45.6 218.19,-40.36 214.4,-36.69 208.51,-34.59"/>
<polygon fill="black" stroke="black" points="209.07,-31.13 198.59,-32.63 207.72,-38 209.07,-31.13"/>
<text text-anchor="middle" x="227.19" y="-41.9" font-family="Times New Roman,serif" font-size="14.00">a,b</text>
</g>
<!-- start -->
<g id="node10" class="node">
<title>start</title>
</g>
<!-- start&#45;&gt;&lt;q1,s1&gt; -->
<g id="edge1" class="edge">
<title>start&#45;&gt;&lt;q1,s1&gt;</title>
<path fill="none" stroke="black" d="M162.6,-664.61C162.6,-657.09 162.6,-647.86 162.6,-638.42"/>
<polygon fill="black" stroke="black" points="166.1,-638.17 162.6,-628.17 159.1,-638.17 166.1,-638.17"/>
</g>
</g>
</svg>
