<?xml version="1.0" standalone="no"?>
<svg xmlns="http://www.w3.org/2000/svg" xmlns:xlink="http://www.w3.org/1999/xlink" width="325pt" height="255pt" viewBox="0.00 0.00 325.00 255.47">
<g id="graph0" class="graph" transform="translate(4,251.47000122070312) scale(1)" data-name="name">

<polygon fill="white" stroke="transparent" points="-4,4 -4,-251.47 321,-251.47 321,4 -4,4" style=""/>
<text text-anchor="middle" x="158.5" y="-8.2" font-family="Times,serif" font-size="14.00" style="">4.1</text>
<g id="clust1" class="cluster" data-name="cluster_Q">

<polygon fill="none" stroke="black" points="8,-32.8 8,-192.37 309,-192.37 309,-32.8 8,-32.8" style=""/>
</g>
<!-- start -->
<g id="node1" class="node" pointer-events="visible" data-name="start">

</g>
<!-- q1 -->
<g id="node4" class="node" pointer-events="visible" data-name="q1">

<ellipse fill="none" stroke="black" cx="126" cy="-163.68" rx="20.89" ry="20.89" style=""/>
<text text-anchor="middle" x="126" y="-159.48" font-family="Times,serif" font-size="14.00" style="">q1</text>
</g>
<!-- start&#45;&gt;q1 -->
<g id="edge1" class="edge" data-name="start-&gt;q1">

<path fill="none" stroke="black" d="M70.23,-163.68C78.49,-163.68 86.75,-163.68 95.01,-163.68" style=""/>
<polygon fill="black" stroke="black" points="95.09,-167.18 105.09,-163.68 95.09,-160.18 95.09,-167.18" style=""/>
</g>
<!-- q3 -->
<g id="node2" class="node" pointer-events="visible" data-name="q3">

<ellipse fill="none" stroke="black" cx="280" cy="-163.68" rx="20.89" ry="20.89" style=""/>
<text text-anchor="middle" x="280" y="-159.48" font-family="Times,serif" font-size="14.00" style="">q3</text>
</g>
<!-- q3&#45;&gt;q1 -->
<g id="edge4" class="edge" data-name="q3-&gt;q1">

<path fill="none" stroke="black" d="M266.69,-179.64C251.44,-195.87 225.23,-217.63 199.5,-210.17 181.42,-204.93 163.51,-193.77 149.9,-183.69" style=""/>
<polygon fill="black" stroke="black" points="151.68,-180.64 141.62,-177.3 147.4,-186.18 151.68,-180.64" style=""/>
<text text-anchor="middle" x="203" y="-206.57" font-family="Times,serif" font-size="14.00" style="">b</text>
</g>
<!-- q2 -->
<g id="node3" class="node" pointer-events="visible" data-name="q2">

<ellipse fill="none" stroke="black" cx="203" cy="-163.68" rx="20.89" ry="20.89" style=""/>
<text text-anchor="middle" x="203" y="-159.48" font-family="Times,serif" font-size="14.00" style="">q2</text>
</g>
<!-- q2&#45;&gt;q3 -->
<g id="edge3" class="edge" data-name="q2-&gt;q3">

<path fill="none" stroke="black" d="M224.04,-163.68C231.74,-163.68 240.63,-163.68 249.02,-163.68" style=""/>
<polygon fill="black" stroke="black" points="249.25,-167.18 259.25,-163.68 249.25,-160.18 249.25,-167.18" style=""/>
<text text-anchor="middle" x="241.5" y="-170.88" font-family="Times,serif" font-size="14.00" style="">a</text>
</g>
<!-- q1&#45;&gt;q2 -->
<g id="edge2" class="edge" data-name="q1-&gt;q2">

<path fill="none" stroke="black" d="M147.04,-163.68C154.74,-163.68 163.63,-163.68 172.02,-163.68" style=""/>
<polygon fill="black" stroke="black" points="172.25,-167.18 182.25,-163.68 172.25,-160.18 172.25,-167.18" style=""/>
<text text-anchor="middle" x="164.5" y="-170.88" font-family="Times,serif" font-size="14.00" style="">a</text>
</g>
<!-- q4 -->
<g id="node7" class="node" pointer-events="visible" data-name="q4">

<ellipse fill="none" stroke="black" cx="195" cy="-65.49" rx="20.86" ry="20.86" style=""/>
<ellipse fill="none" stroke="black" cx="195" cy="-65.49" rx="24.89" ry="24.89" style=""/>
<text text-anchor="middle" x="195" y="-61.29" font-family="Times,serif" font-size="14.00" style="">q4</text>
</g>
<!-- q1&#45;&gt;q4 -->
<g id="edge5" class="edge" data-name="q1-&gt;q4">

<path fill="none" stroke="black" d="M137.7,-146.36C147.85,-132.21 162.77,-111.42 174.84,-94.6" style=""/>
<polygon fill="black" stroke="black" points="177.86,-96.39 180.85,-86.22 172.18,-92.31 177.86,-96.39" style=""/>
<text text-anchor="middle" x="167.5" y="-112.39" font-family="Times,serif" font-size="14.00" style="">b</text>
</g>
<!-- q6 -->
<g id="node5" class="node" pointer-events="visible" data-name="q6">

<ellipse fill="none" stroke="black" cx="114" cy="-65.49" rx="20.89" ry="20.89" style=""/>
<text text-anchor="middle" x="114" y="-61.29" font-family="Times,serif" font-size="14.00" style="">q6</text>
</g>
<!-- q6&#45;&gt;q4 -->
<g id="edge8" class="edge" data-name="q6-&gt;q4">

<path fill="none" stroke="black" d="M134.86,-65.49C142.52,-65.49 151.43,-65.49 160,-65.49" style=""/>
<polygon fill="black" stroke="black" points="160.18,-68.99 170.18,-65.49 160.18,-61.99 160.18,-68.99" style=""/>
<text text-anchor="middle" x="152.5" y="-72.69" font-family="Times,serif" font-size="14.00" style="">a</text>
</g>
<!-- q5 -->
<g id="node6" class="node" pointer-events="visible" data-name="q5">

<ellipse fill="none" stroke="black" cx="37" cy="-65.49" rx="20.89" ry="20.89" style=""/>
<text text-anchor="middle" x="37" y="-61.29" font-family="Times,serif" font-size="14.00" style="">q5</text>
</g>
<!-- q5&#45;&gt;q6 -->
<g id="edge7" class="edge" data-name="q5-&gt;q6">

<path fill="none" stroke="black" d="M58.04,-65.49C65.74,-65.49 74.63,-65.49 83.02,-65.49" style=""/>
<polygon fill="black" stroke="black" points="83.25,-68.99 93.25,-65.49 83.25,-61.99 83.25,-68.99" style=""/>
<text text-anchor="middle" x="75.5" y="-72.69" font-family="Times,serif" font-size="14.00" style="">b</text>
</g>
<!-- q4&#45;&gt;q5 -->
<g id="edge6" class="edge" data-name="q4-&gt;q5">

<path fill="none" stroke="black" d="M177.34,-83.15C163.59,-95.56 143.33,-111.14 122.11,-117.99 97.61,-125.89 72.93,-107.02 56.51,-89.75" style=""/>
<polygon fill="black" stroke="black" points="58.86,-87.13 49.57,-82.03 53.65,-91.8 58.86,-87.13" style=""/>
<text text-anchor="middle" x="119" y="-112.39" font-family="Times,serif" font-size="14.00" style="">a</text>
</g>
</g>
</svg>