<?xml version="1.0" standalone="no"?>
<svg xmlns="http://www.w3.org/2000/svg" xmlns:xlink="http://www.w3.org/1999/xlink" width="1077pt" height="619pt" viewBox="0.00 0.00 1076.5 618.8">
<g id="graph0" class="graph" transform="translate(4,614.7999877929688) scale(1)" data-name="name">

<polygon fill="white" stroke="transparent" points="-4,4 -4,-614.8 1072.5,-614.8 1072.5,4 -4,4"/>
<text text-anchor="middle" x="534.25" y="-8.2" font-family="Times,serif" font-size="14.00">3.1</text>
<g id="clust1" class="cluster" data-name="cluster_1">

<polygon fill="none" stroke="black" points="8,-32.8 8,-228.8 1060.5,-228.8 1060.5,-32.8 8,-32.8"/>
<text text-anchor="middle" x="534.25" y="-212.2" font-family="Times,serif" font-size="14.00">НКА с lambda</text>
</g><g id="clust5" class="cluster" data-name="cluster_3">

<polygon fill="none" stroke="black" points="8,-448.8 8,-602.8 502.49,-602.8 502.49,-448.8 8,-448.8"/>
<text text-anchor="middle" x="255.25" y="-586.2" font-family="Times,serif" font-size="14.00">ДКА</text>
</g>
<g id="clust3" class="cluster" data-name="cluster_2">

<polygon fill="none" stroke="black" points="8,-236.8 8,-440.8 623.7,-440.8 623.7,-236.8 8,-236.8"/>
<text text-anchor="middle" x="315.85" y="-424.2" font-family="Times,serif" font-size="14.00">НКА</text>
</g>

<!-- qstart -->

<!-- q1 -->

<!-- qstart&#45;&gt;q1 -->
<g id="node1" class="node" pointer-events="visible" data-name="1_start" data-comment="qstart-&gt;q1">

</g><g id="edge1" class="edge" data-name="1_start-&gt;1_1" data-comment="qstart-&gt;q1">

<path fill="none" stroke="black" d="M43,-109.08C43,-117.63 43,-126.17 43,-134.72"/>
<polygon fill="black" stroke="black" points="39.5,-134.75 43,-144.75 46.5,-134.75 39.5,-134.75"/>
</g>
<!-- q1&#45;&gt;q1 -->

<!-- q2 -->
<g id="node2" class="node" pointer-events="visible" data-name="1_1" data-comment="q2">

<ellipse fill="none" stroke="black" cx="43" cy="-162.8" rx="18" ry="18"/>
<text text-anchor="middle" x="43" y="-158.6" font-family="Times,serif" font-size="14.00">1</text>
</g>
<!-- q1&#45;&gt;q2 -->
<g id="node3" class="node" pointer-events="visible" data-name="1_2" data-comment="q1-&gt;q2">

<ellipse fill="none" stroke="black" cx="181.56" cy="-134.8" rx="18" ry="18"/>
<text text-anchor="middle" x="181.56" y="-130.6" font-family="Times,serif" font-size="14.00">2</text>
</g><g id="edge2" class="edge" data-name="1_1-&gt;1_2" data-comment="q1-&gt;q2">

<path fill="none" stroke="black" d="M60.75,-159.37C83.88,-154.62 125.9,-146.01 153.52,-140.34"/>
<polygon fill="black" stroke="black" points="154.59,-143.7 163.68,-138.26 153.18,-136.84 154.59,-143.7"/>
<text text-anchor="middle" x="108.61" y="-157" font-family="Times,serif" font-size="14.00">lambda</text>
</g>
<!-- q2&#45;&gt;q2 -->
<g id="node4" class="node" pointer-events="visible" data-name="1_3" data-comment="q2-&gt;q2">

<ellipse fill="none" stroke="black" cx="323.47" cy="-58.8" rx="18" ry="18"/>
<text text-anchor="middle" x="323.47" y="-54.6" font-family="Times,serif" font-size="14.00">3</text>
</g>
<!-- q3 -->
<g id="node5" class="node" pointer-events="visible" data-name="1_4" data-comment="q3">

<ellipse fill="none" stroke="black" cx="445.66" cy="-58.8" rx="18" ry="18"/>
<text text-anchor="middle" x="445.66" y="-54.6" font-family="Times,serif" font-size="14.00">4</text>
</g>
<!-- q2&#45;&gt;q3 -->
<g id="node6" class="node" pointer-events="visible" data-name="1_5" data-comment="q2-&gt;q3">

<ellipse fill="none" stroke="black" cx="651.7" cy="-58.8" rx="18" ry="18"/>
<text text-anchor="middle" x="651.7" y="-54.6" font-family="Times,serif" font-size="14.00">5</text>
</g><g id="edge3" class="edge" data-name="1_1-&gt;1_11" data-comment="q2-&gt;q3">

<path fill="none" stroke="black" d="M60.56,-167.74C68.75,-169.97 78.81,-172.42 88,-173.8 128.74,-179.94 139.36,-178.8 180.56,-178.8 180.56,-178.8 180.56,-178.8 825.3,-178.8 859.32,-178.8 867.95,-177.32 901.51,-171.8 904.38,-171.33 907.34,-170.76 910.3,-170.14"/>
<polygon fill="black" stroke="black" points="911.16,-173.54 920.14,-167.91 909.61,-166.71 911.16,-173.54"/>
<text text-anchor="middle" x="533.1" y="-183" font-family="Times,serif" font-size="14.00">lambda</text>
</g>
<!-- q3&#45;&gt;q3 -->
<g id="node7" class="node" pointer-events="visible" data-name="1_6" data-comment="q3-&gt;q3">

<ellipse fill="none" stroke="black" cx="824.3" cy="-128.8" rx="18" ry="18"/>
<text text-anchor="middle" x="824.3" y="-124.6" font-family="Times,serif" font-size="14.00">6</text>
</g><g id="edge4" class="edge" data-name="1_2-&gt;1_3" data-comment="q3-&gt;q3">

<path fill="none" stroke="black" d="M196.49,-124.05C206.57,-116.53 220.69,-106.53 233.91,-99 254.46,-87.3 279.04,-76.37 297.08,-68.87"/>
<polygon fill="black" stroke="black" points="298.43,-72.1 306.36,-65.07 295.78,-65.62 298.43,-72.1"/>
<text text-anchor="middle" x="254.52" y="-103" font-family="Times,serif" font-size="14.00">lambda</text>
</g>
<!-- sstart -->
<g id="node8" class="node" pointer-events="visible" data-name="1_7" data-comment="sstart">

<ellipse fill="none" stroke="black" cx="323.47" cy="-112.8" rx="18" ry="18"/>
<text text-anchor="middle" x="323.47" y="-108.6" font-family="Times,serif" font-size="14.00">7</text>
</g>
<!-- s1 -->
<!-- 1_6&#45;&gt;1_11 -->
<g id="edge13" class="edge" data-name="1_6-&gt;1_11">

<path fill="none" stroke="black" d="M842.11,-133.82C860.06,-139.17 888.83,-147.76 910.41,-154.2"/>
<polygon fill="black" stroke="black" points="909.46,-157.57 920.04,-157.08 911.46,-150.87 909.46,-157.57"/>
<text text-anchor="middle" x="880.91" y="-155" font-family="Times,serif" font-size="14.00">lambda</text>
</g>
<!-- 1_8 -->
<g id="node9" class="node" pointer-events="visible" data-name="1_8">

<ellipse fill="none" stroke="black" cx="445.66" cy="-112.8" rx="18" ry="18"/>
<text text-anchor="middle" x="445.66" y="-108.6" font-family="Times,serif" font-size="14.00">8</text>
</g><g id="edge5" class="edge" data-name="1_2-&gt;1_7" data-comment="1_8">

<path fill="none" stroke="black" d="M199.44,-132.15C223.28,-128.4 267.09,-121.51 295.48,-117.04"/>
<polygon fill="black" stroke="black" points="296.2,-120.47 305.54,-115.46 295.11,-113.56 296.2,-120.47"/>
<text text-anchor="middle" x="254.52" y="-130" font-family="Times,serif" font-size="14.00">lambda</text>
</g>
<!-- sstart&#45;&gt;s1 -->
<g id="node14" class="node" pointer-events="visible" data-name="2_start" data-comment="sstart-&gt;s1">

</g><g id="edge16" class="edge" data-name="2_start-&gt;2_1" data-comment="sstart-&gt;s1">

<path fill="none" stroke="black" d="M43,-287.08C43,-295.63 43,-304.17 43,-312.72"/>
<polygon fill="black" stroke="black" points="39.5,-312.75 43,-322.75 46.5,-312.75 39.5,-312.75"/>
</g>
<!-- 1_7&#45;&gt;1_8 -->
<g id="edge7" class="edge" data-name="1_7-&gt;1_8">

<path fill="none" stroke="black" d="M341.69,-112.8C361.42,-112.8 394,-112.8 417.23,-112.8"/>
<polygon fill="black" stroke="black" points="417.47,-116.3 427.47,-112.8 417.47,-109.3 417.47,-116.3"/>
<text text-anchor="middle" x="375.32" y="-117" font-family="Times,serif" font-size="14.00">a</text>
</g>
<!-- 1_9 -->
<g id="node10" class="node" pointer-events="visible" data-name="1_9">

<ellipse fill="none" stroke="black" cx="593.7" cy="-102.8" rx="18" ry="18"/>
<text text-anchor="middle" x="593.7" y="-98.6" font-family="Times,serif" font-size="14.00">9</text>
</g>
<!-- s1&#45;&gt;s1 -->

<!-- 1_8&#45;&gt;1_9 --><g id="edge17" class="edge" data-name="2_1-&gt;2_2" data-comment="1_8-&gt;1_9">

<path fill="none" stroke="black" d="M59.53,-348.36C67.8,-352.07 78.25,-356.28 88,-358.8 109.48,-364.36 134.5,-367.12 153.1,-368.48"/>
<polygon fill="black" stroke="black" points="153.04,-371.99 163.24,-369.14 153.49,-365 153.04,-371.99"/>
<text text-anchor="middle" x="108.61" y="-370" font-family="Times,serif" font-size="14.00">a</text>
</g>
<g id="edge9" class="edge" data-name="1_8-&gt;1_9">

<path fill="none" stroke="black" d="M463.31,-108.64C476.54,-105.56 495.57,-101.63 512.49,-100 530.73,-98.24 535.4,-99.34 553.7,-100 557.52,-100.14 561.55,-100.35 565.51,-100.6"/>
<polygon fill="black" stroke="black" points="565.41,-104.1 575.63,-101.31 565.9,-97.12 565.41,-104.1"/>
<text text-anchor="middle" x="533.1" y="-104" font-family="Times,serif" font-size="14.00">b</text>
</g>
<!-- 1_10 -->
<g id="node11" class="node" pointer-events="visible" data-name="1_10">

<ellipse fill="none" stroke="black" cx="708.4" cy="-113.8" rx="20.89" ry="20.89"/>
<text text-anchor="middle" x="708.4" y="-109.6" font-family="Times,serif" font-size="14.00">10</text>
</g><g id="edge6" class="edge" data-name="1_3-&gt;1_4" data-comment="1_10">

<path fill="none" stroke="black" d="M341.69,-58.8C361.42,-58.8 394,-58.8 417.23,-58.8"/>
<polygon fill="black" stroke="black" points="417.47,-62.3 427.47,-58.8 417.47,-55.3 417.47,-62.3"/>
<text text-anchor="middle" x="375.32" y="-63" font-family="Times,serif" font-size="14.00">a</text>
</g>
<!-- s2 -->
<g id="node12" class="node" pointer-events="visible" data-name="1_11" data-comment="s2">

<ellipse fill="none" stroke="black" cx="940.21" cy="-162.8" rx="20.89" ry="20.89"/>
<text text-anchor="middle" x="940.21" y="-158.6" font-family="Times,serif" font-size="14.00">11</text>
</g>
<!-- s1&#45;&gt;s2 -->
<g id="edge18" class="edge" data-name="2_1-&gt;2_3" data-comment="s1-&gt;s2">

<path fill="none" stroke="black" d="M54.56,-326.67C62.72,-316.62 74.82,-303.45 88,-295 108.3,-281.98 134.5,-273.51 153.84,-268.54"/>
<polygon fill="black" stroke="black" points="154.9,-271.88 163.8,-266.13 153.26,-265.08 154.9,-271.88"/>
<text text-anchor="middle" x="108.61" y="-299" font-family="Times,serif" font-size="14.00">a</text>
</g>
<!-- 1_10&#45;&gt;1_6 --><g id="edge20" class="edge" data-name="2_2-&gt;2_1" data-comment="1_10-&gt;1_6">

<path fill="none" stroke="black" d="M167.18,-358.6C157.36,-351.15 143.33,-342.02 129.21,-338 110.29,-332.62 88.05,-333.58 71.04,-335.75"/>
<polygon fill="black" stroke="black" points="70.07,-332.35 60.7,-337.29 71.11,-339.27 70.07,-332.35"/>
<text text-anchor="middle" x="108.61" y="-342" font-family="Times,serif" font-size="14.00">b</text>
</g>
<g id="edge14" class="edge" data-name="1_10-&gt;1_6">

<path fill="none" stroke="black" d="M728.98,-116.38C747.5,-118.82 775.47,-122.5 796.15,-125.22"/>
<polygon fill="black" stroke="black" points="795.83,-128.71 806.21,-126.55 796.75,-121.77 795.83,-128.71"/>
<text text-anchor="middle" x="767.7" y="-128" font-family="Times,serif" font-size="14.00">lambda</text>
</g>
<!-- 1_12 --><g id="edge21" class="edge" data-name="2_2-&gt;2_5" data-comment="1_12">

<path fill="none" stroke="black" d="M199.37,-366.74C221,-362.88 259.76,-356.24 293.12,-352 336.31,-346.51 386.68,-342.2 417.09,-339.83"/>
<polygon fill="black" stroke="black" points="417.64,-343.3 427.35,-339.05 417.11,-336.32 417.64,-343.3"/>
<text text-anchor="middle" x="323.47" y="-356" font-family="Times,serif" font-size="14.00">b</text>
</g>
<g id="node13" class="node" pointer-events="visible" data-name="1_12">

<ellipse fill="none" stroke="black" cx="1027.81" cy="-162.8" rx="20.86" ry="20.86"/>
<text text-anchor="middle" x="1027.81" y="-158.6" font-family="Times,serif" font-size="14.00">12</text><ellipse fill="none" stroke="black" cx="1027.81" cy="-162.8" rx="24.89" ry="24.89"/>

</g><g id="edge8" class="edge" data-name="1_4-&gt;1_5" data-comment="1_12">

<path fill="none" stroke="black" d="M463.7,-58.8C499.04,-58.8 580.53,-58.8 623.32,-58.8"/>
<polygon fill="black" stroke="black" points="623.56,-62.3 633.56,-58.8 623.56,-55.3 623.56,-62.3"/>
<text text-anchor="middle" x="533.1" y="-63" font-family="Times,serif" font-size="14.00">b</text>
</g>
<!-- s2&#45;&gt;s2 -->

<!-- s3 -->
<g id="edge10" class="edge" data-name="1_5-&gt;1_6" data-comment="s3">

<path fill="none" stroke="black" d="M669.9,-58.37C685.73,-58.5 709.63,-60.03 729.09,-67 756.63,-76.86 784.14,-96.28 802.26,-110.74"/>
<polygon fill="black" stroke="black" points="800.4,-113.74 810.36,-117.37 804.84,-108.33 800.4,-113.74"/>
<text text-anchor="middle" x="708.4" y="-72" font-family="Times,serif" font-size="14.00">lambda</text>
</g>
<!-- s2&#45;&gt;s3 -->

<!-- s3&#45;&gt;s3 -->
<g id="edge12" class="edge" data-name="1_6-&gt;1_2" data-comment="s3-&gt;s3">

<path fill="none" stroke="black" d="M808.12,-137.46C802.14,-140.4 795.09,-143.32 788.3,-144.8 744.61,-154.31 732.41,-144.81 687.7,-143.8 628.14,-142.45 613.28,-140.84 553.7,-140 535.39,-139.74 530.81,-139.81 512.49,-140 406.98,-141.07 380.64,-143.73 275.12,-144.8 256.81,-144.99 252.14,-146.56 233.91,-144.8 225.96,-144.03 217.4,-142.61 209.6,-141.08"/>
<polygon fill="black" stroke="black" points="210.06,-137.6 199.56,-138.96 208.62,-144.45 210.06,-137.6"/>
<text text-anchor="middle" x="533.1" y="-144" font-family="Times,serif" font-size="14.00">lambda</text>
</g>
<!-- start -->

<!-- f 1|1 -->

<!-- 1_7&#45;&gt;1_8 -->

<!-- start&#45;&gt;f 1|1 -->

<!-- f 2|1 -->

<!-- 1_8&#45;&gt;1_9 -->

<!-- f 1|1&#45;&gt;f 2|1 -->

<!-- f 1|2 -->

<!-- f 1|1&#45;&gt;f 1|2 -->

<!-- 1_9&#45;&gt;1_10 -->
<g id="edge11" class="edge" data-name="1_9-&gt;1_10">

<path fill="none" stroke="black" d="M611.82,-104.47C629.2,-106.17 656.47,-108.83 677.44,-110.88"/>
<polygon fill="black" stroke="black" points="677.16,-114.37 687.46,-111.85 677.84,-107.4 677.16,-114.37"/>
<text text-anchor="middle" x="651.7" y="-114" font-family="Times,serif" font-size="14.00">a</text>
</g>
<!-- f 3|3 -->
<!-- 1_9&#45;&gt;1_10 --><g id="edge19" class="edge" data-name="2_1-&gt;2_6" data-comment="1_9-&gt;1_10">

<path fill="none" stroke="black" d="M53.82,-355.23C61.78,-365.72 73.94,-379.35 88,-386.8 111.58,-399.3 120.62,-394.57 147.21,-396.8 270.8,-407.16 451.11,-396.96 553.7,-375.8 556.95,-375.13 560.28,-374.25 563.57,-373.26"/>
<polygon fill="black" stroke="black" points="564.81,-376.53 573.18,-370.03 562.58,-369.9 564.81,-376.53"/>
<text text-anchor="middle" x="323.47" y="-404" font-family="Times,serif" font-size="14.00">a</text>
</g>

<!-- 1_10&#45;&gt;1_6 -->

<!-- 1_11&#45;&gt;1_12 -->
<g id="edge15" class="edge" data-name="1_11-&gt;1_12">

<path fill="none" stroke="black" d="M961.06,-162.8C970.57,-162.8 982.22,-162.8 993.06,-162.8"/>
<polygon fill="black" stroke="black" points="993.1,-166.3 1003.1,-162.8 993.1,-159.3 993.1,-166.3"/>
<text text-anchor="middle" x="982.01" y="-167" font-family="Times,serif" font-size="14.00">a</text>
</g>
<!-- 1_11&#45;&gt;1_12 -->


<g id="edge22" class="edge" data-name="2_3-&gt;2_4" data-comment="1_11-&gt;1_12">

<path fill="none" stroke="black" d="M199.44,-265.33C223.28,-268.91 267.09,-275.49 295.48,-279.75"/>
<polygon fill="black" stroke="black" points="295.13,-283.23 305.54,-281.26 296.17,-276.31 295.13,-283.23"/>
<text text-anchor="middle" x="254.52" y="-280" font-family="Times,serif" font-size="14.00">b</text>
</g>
<g id="node15" class="node" pointer-events="visible" data-name="2_1" data-comment="1_11-&gt;1_12">

<ellipse fill="none" stroke="black" cx="43" cy="-340.8" rx="18" ry="18"/>
<text text-anchor="middle" x="43" y="-336.6" font-family="Times,serif" font-size="14.00">1</text>
</g><g id="node16" class="node" pointer-events="visible" data-name="2_2" data-comment="1_11-&gt;1_12">

<ellipse fill="none" stroke="black" cx="181.56" cy="-369.8" rx="18" ry="18"/>
<text text-anchor="middle" x="181.56" y="-365.6" font-family="Times,serif" font-size="14.00">2</text>
</g><g id="node17" class="node" pointer-events="visible" data-name="2_3" data-comment="1_11-&gt;1_12">

<ellipse fill="none" stroke="black" cx="181.56" cy="-262.8" rx="18" ry="18"/>
<text text-anchor="middle" x="181.56" y="-258.6" font-family="Times,serif" font-size="14.00">3</text>
</g><!-- 2_2&#45;&gt;2_5 -->

<!-- 2_4 --><g id="node21" class="node" pointer-events="visible" data-name="3_start" data-comment="2_4">

</g>
<g id="node18" class="node" pointer-events="visible" data-name="2_4">

<ellipse fill="none" stroke="black" cx="323.47" cy="-283.8" rx="18" ry="18"/>
<text text-anchor="middle" x="323.47" y="-279.6" font-family="Times,serif" font-size="14.00">4</text>
</g><g id="node19" class="node" pointer-events="visible" data-name="2_5" data-comment="2_4">

<ellipse fill="none" stroke="black" cx="445.66" cy="-337.8" rx="18" ry="18"/>
<text text-anchor="middle" x="445.66" y="-333.6" font-family="Times,serif" font-size="14.00">5</text>
</g><g id="node20" class="node" pointer-events="visible" data-name="2_6" data-comment="2_4">

<ellipse fill="none" stroke="black" cx="593.7" cy="-361.8" rx="18" ry="18"/>
<text text-anchor="middle" x="593.7" y="-357.6" font-family="Times,serif" font-size="14.00">6</text><ellipse fill="none" stroke="black" cx="593.7" cy="-361.8" rx="22" ry="22"/>

</g><!-- 2_11 -->
<g id="edge23" class="edge" data-name="2_4-&gt;2_1" data-comment="2_11">

<path fill="none" stroke="black" d="M305.91,-288.75C296.87,-291.36 285.43,-294.48 275.12,-296.8 192.73,-315.33 170.6,-312.21 88,-329.8 82.32,-331.01 76.26,-332.43 70.51,-333.85"/>
<polygon fill="black" stroke="black" points="69.49,-330.5 60.65,-336.34 71.2,-337.29 69.49,-330.5"/>
<text text-anchor="middle" x="181.56" y="-322" font-family="Times,serif" font-size="14.00">a</text>
</g><g id="edge24" class="edge" data-name="2_4-&gt;2_5" data-comment="2_11">

<path fill="none" stroke="black" d="M340.18,-290.86C360.43,-299.96 395.86,-315.87 419.78,-326.62"/>
<polygon fill="black" stroke="black" points="418.39,-329.83 428.94,-330.74 421.25,-323.45 418.39,-329.83"/>
<text text-anchor="middle" x="375.32" y="-311" font-family="Times,serif" font-size="14.00">a</text>
</g>
<!-- 2_12 -->
<g id="edge25" class="edge" data-name="2_5-&gt;2_6" data-comment="2_12">

<path fill="none" stroke="black" d="M463.7,-340.6C487.66,-344.54 531.72,-351.78 561.61,-356.69"/>
<polygon fill="black" stroke="black" points="561.1,-360.15 571.53,-358.32 562.23,-353.25 561.1,-360.15"/>
<text text-anchor="middle" x="533.1" y="-359" font-family="Times,serif" font-size="14.00">a</text>
</g>
<!-- _3 -->
<g id="node23" class="node" pointer-events="visible" data-name="3_2" data-comment="_3">

<ellipse fill="none" stroke="black" cx="181.56" cy="-535.8" rx="30.22" ry="30.22"/>
<text text-anchor="middle" x="181.56" y="-531.6" font-family="Times,serif" font-size="14.00">2,3,6</text><ellipse fill="none" stroke="black" cx="181.56" cy="-535.8" rx="34.2" ry="34.2"/>

</g>
<!-- _4 -->
<g id="node24" class="node" pointer-events="visible" data-name="3_3" data-comment="_4">

<ellipse fill="none" stroke="black" cx="323.47" cy="-486.8" rx="30.2" ry="30.2"/>
<text text-anchor="middle" x="323.47" y="-482.6" font-family="Times,serif" font-size="14.00">1,4,5</text>
</g><g id="edge27" class="edge" data-name="3_1-&gt;3_2" data-comment="_4">

<path fill="none" stroke="black" d="M61.02,-545.43C79.87,-543.91 111.01,-541.4 136.78,-539.33"/>
<polygon fill="black" stroke="black" points="137.39,-542.79 147.08,-538.5 136.83,-535.81 137.39,-542.79"/>
<text text-anchor="middle" x="108.61" y="-547" font-family="Times,serif" font-size="14.00">a</text>
</g>
<!-- 3_1 -->
<g id="node22" class="node" pointer-events="visible" data-name="3_1">

<ellipse fill="none" stroke="black" cx="43" cy="-546.8" rx="18" ry="18"/>
<text text-anchor="middle" x="43" y="-542.6" font-family="Times,serif" font-size="14.00">1</text>
</g>
<!-- 3_1&#45;&gt;2_2 -->
<!-- 3_4 -->
<!-- 3_4 -->
<!-- 3_4 -->
<g id="node25" class="node" pointer-events="visible" data-name="3_4">

<ellipse fill="none" stroke="black" cx="445.66" cy="-520.8" rx="44.69" ry="44.69"/>
<text text-anchor="middle" x="445.66" y="-516.6" font-family="Times,serif" font-size="14.00">1,2,3,5,6</text><ellipse fill="none" stroke="black" cx="445.66" cy="-520.8" rx="48.67" ry="48.67"/>

</g>
<g id="edge26" class="edge" data-name="3_start-&gt;3_1" data-comment="3_4">

<path fill="none" stroke="black" d="M43,-493.08C43,-501.63 43,-510.17 43,-518.72"/>
<polygon fill="black" stroke="black" points="39.5,-518.75 43,-528.75 46.5,-518.75 39.5,-518.75"/>
</g>
<g id="edge28" class="edge" data-name="3_2-&gt;3_3" data-comment="3_4">

<path fill="none" stroke="black" d="M214.31,-524.68C235.28,-517.34 262.87,-507.67 284.93,-499.95"/>
<polygon fill="black" stroke="black" points="286.36,-503.16 294.64,-496.55 284.04,-496.55 286.36,-503.16"/>
<text text-anchor="middle" x="254.52" y="-521" font-family="Times,serif" font-size="14.00">b</text>
</g>

<g id="edge29" class="edge" data-name="3_3-&gt;3_4" data-comment="3_4">

<path fill="none" stroke="black" d="M353.57,-482.85C361.83,-482.53 370.77,-482.95 378.82,-485 384.18,-486.36 389.58,-488.26 394.85,-490.48"/>
<polygon fill="black" stroke="black" points="393.61,-493.76 404.16,-494.76 396.54,-487.4 393.61,-493.76"/>
<text text-anchor="middle" x="375.32" y="-489" font-family="Times,serif" font-size="14.00">a</text>
</g>
<!-- 3_3&#45;&gt;3_4 -->
<g id="edge30" class="edge" data-name="3_4-&gt;3_3" data-comment="3_3-&gt;3_4">

<path fill="none" stroke="black" d="M397.93,-508.99C389.23,-506.69 380.23,-504.23 371.82,-501.8 368.67,-500.89 365.42,-499.92 362.15,-498.93"/>
<polygon fill="black" stroke="black" points="363.03,-495.54 352.44,-495.92 360.96,-502.22 363.03,-495.54"/>
<text text-anchor="middle" x="375.32" y="-507" font-family="Times,serif" font-size="14.00">b</text>
</g><g id="edge31" class="edge" data-name="3_4-&gt;3_2" data-comment="3_3-&gt;3_4">

<path fill="none" stroke="black" d="M396.89,-526.88C362.97,-530.88 316.34,-535.74 275.12,-537.8 256.83,-538.71 252.22,-538.16 233.91,-537.8 231.37,-537.75 228.77,-537.69 226.14,-537.61"/>
<polygon fill="black" stroke="black" points="226.08,-534.11 215.98,-537.29 225.86,-541.11 226.08,-534.11"/>
<text text-anchor="middle" x="323.47" y="-540" font-family="Times,serif" font-size="14.00">a</text>
</g>
<!-- 3_4&#45;&gt;3_3 -->

</g>
</svg>