<?xml version="1.0" standalone="no"?>
<svg xmlns="http://www.w3.org/2000/svg" xmlns:xlink="http://www.w3.org/1999/xlink" width="187pt" height="708pt" viewBox="0.00 0.00 187.00 707.83">
<g id="graph0" class="graph" transform="translate(4,703.8300170898438) scale(1)" data-name="name">

<polygon fill="white" stroke="transparent" points="-4,4 -4,-703.83 183,-703.83 183,4 -4,4" style=""/>
<text text-anchor="middle" x="89.5" y="-8.2" font-family="Times,serif" font-size="14.00" style="">2.4</text>
<g id="clust1" class="cluster" data-name="cluster_1">

<polygon fill="none" stroke="black" points="8,-32.8 8,-691.83 171,-691.83 171,-32.8 8,-32.8" style=""/>
</g>
<!-- start -->
<g id="node1" class="node" pointer-events="visible" data-name="start">

</g>
<!-- f 1|1 -->
<g id="node2" class="node" pointer-events="visible" data-name="f 1|1">

<ellipse fill="none" stroke="black" cx="134" cy="-655.58" rx="28.01" ry="28.01" style=""/>
<text text-anchor="middle" x="134" y="-651.38" font-family="Times,serif" font-size="14.00" style="">f 1|1</text>
</g>
<!-- start&#45;&gt;f 1|1 -->
<g id="edge1" class="edge" data-name="start-&gt;f 1|1">

<path fill="none" stroke="black" d="M70.02,-655.58C78.43,-655.58 86.84,-655.58 95.25,-655.58" style=""/>
<polygon fill="black" stroke="black" points="95.51,-659.08 105.51,-655.58 95.51,-652.08 95.51,-659.08" style=""/>
</g>
<!-- f 2|1 -->
<g id="node3" class="node" pointer-events="visible" data-name="f 2|1">

<ellipse fill="none" stroke="black" cx="105" cy="-542.28" rx="28.04" ry="28.04" style=""/>
<ellipse fill="none" stroke="black" cx="105" cy="-542.28" rx="32.01" ry="32.01" style=""/>
<text text-anchor="middle" x="105" y="-538.08" font-family="Times,serif" font-size="14.00" style="">f 2|1</text>
</g>
<!-- f 1|1&#45;&gt;f 2|1 -->
<g id="edge2" class="edge" data-name="f 1|1-&gt;f 2|1">

<path fill="none" stroke="black" d="M118.53,-631.51C114.66,-624.65 110.99,-616.93 108.79,-609.33 106.53,-601.57 105.23,-593.1 104.53,-584.88" style=""/>
<polygon fill="black" stroke="black" points="108.01,-584.46 103.93,-574.68 101.02,-584.87 108.01,-584.46" style=""/>
<text text-anchor="middle" x="111.11" y="-596.73" font-family="Times,serif" font-size="14.00" style="">a</text>
</g>
<!-- f 1|2 -->
<g id="node4" class="node" pointer-events="visible" data-name="f 1|2">

<ellipse fill="none" stroke="black" cx="68" cy="-307.66" rx="28.04" ry="28.04" style=""/>
<ellipse fill="none" stroke="black" cx="68" cy="-307.66" rx="32.01" ry="32.01" style=""/>
<text text-anchor="middle" x="68" y="-303.46" font-family="Times,serif" font-size="14.00" style="">f 1|2</text>
</g>
<!-- f 1|1&#45;&gt;f 1|2 -->
<g id="edge8" class="edge" data-name="f 1|1-&gt;f 1|2">

<path fill="none" stroke="black" d="M113.65,-635.96C98.12,-620.76 77.21,-598.03 64,-574.53 37.22,-526.87 35.32,-511.25 27,-457.22 22.64,-428.89 20.55,-420.65 27,-392.72 30.84,-376.11 38.42,-358.98 46.04,-344.56" style=""/>
<polygon fill="black" stroke="black" points="49.26,-345.95 51.01,-335.5 43.13,-342.59 49.26,-345.95" style=""/>
<text text-anchor="middle" x="36.5" y="-479.42" font-family="Times,serif" font-size="14.00" style="">b</text>
</g>
<!-- f 2|1&#45;&gt;f 1|1 -->
<g id="edge5" class="edge" data-name="f 2|1-&gt;f 1|1">

<path fill="none" stroke="black" d="M112.91,-573.65C116.47,-587.31 120.7,-603.55 124.44,-617.88" style=""/>
<polygon fill="black" stroke="black" points="121.15,-619.13 127.05,-627.92 127.92,-617.36 121.15,-619.13" style=""/>
<text text-anchor="middle" x="125.11" y="-596.73" font-family="Times,serif" font-size="14.00" style="">a</text>
</g>
<!-- f 2|2 -->
<g id="node5" class="node" pointer-events="visible" data-name="f 2|2">

<ellipse fill="none" stroke="black" cx="68" cy="-424.97" rx="28.04" ry="28.04" style=""/>
<ellipse fill="none" stroke="black" cx="68" cy="-424.97" rx="32.01" ry="32.01" style=""/>
<text text-anchor="middle" x="68" y="-420.77" font-family="Times,serif" font-size="14.00" style="">f 2|2</text>
</g>
<!-- f 2|1&#45;&gt;f 2|2 -->
<g id="edge11" class="edge" data-name="f 2|1-&gt;f 2|2">

<path fill="none" stroke="black" d="M95.38,-511.28C90.88,-497.27 85.47,-480.4 80.64,-465.37" style=""/>
<polygon fill="black" stroke="black" points="83.96,-464.27 77.58,-455.81 77.3,-466.41 83.96,-464.27" style=""/>
<text text-anchor="middle" x="91.5" y="-479.42" font-family="Times,serif" font-size="14.00" style="">b</text>
</g>
<!-- f 1|2&#45;&gt;f 2|2 -->
<g id="edge3" class="edge" data-name="f 1|2-&gt;f 2|2">

<path fill="none" stroke="black" d="M68,-340.13C68,-353.09 68,-368.3 68,-382.17" style=""/>
<polygon fill="black" stroke="black" points="64.5,-382.46 68,-392.46 71.5,-382.46 64.5,-382.46" style=""/>
<text text-anchor="middle" x="71.11" y="-362.12" font-family="Times,serif" font-size="14.00" style="">a</text>
</g>
<!-- f 1|3 -->
<g id="node6" class="node" pointer-events="visible" data-name="f 1|3">

<ellipse fill="none" stroke="black" cx="85" cy="-190.36" rx="28.04" ry="28.04" style=""/>
<ellipse fill="none" stroke="black" cx="85" cy="-190.36" rx="32.01" ry="32.01" style=""/>
<text text-anchor="middle" x="85" y="-186.16" font-family="Times,serif" font-size="14.00" style="">f 1|3</text>
</g>
<!-- f 1|2&#45;&gt;f 1|3 -->
<g id="edge9" class="edge" data-name="f 1|2-&gt;f 1|3">

<path fill="none" stroke="black" d="M72.6,-275.46C74.55,-262.26 76.84,-246.69 78.92,-232.57" style=""/>
<polygon fill="black" stroke="black" points="82.4,-232.99 80.4,-222.59 75.47,-231.97 82.4,-232.99" style=""/>
<text text-anchor="middle" x="81.5" y="-244.81" font-family="Times,serif" font-size="14.00" style="">b</text>
</g>
<!-- f 2|2&#45;&gt;f 1|2 -->
<g id="edge6" class="edge" data-name="f 2|2-&gt;f 1|2">

<path fill="none" stroke="black" d="M63.49,-393.02C62.78,-386.97 62.16,-380.65 61.79,-374.72 61.28,-366.63 61.52,-358.01 62.13,-349.75" style=""/>
<polygon fill="black" stroke="black" points="65.64,-349.83 63.08,-339.55 58.67,-349.18 65.64,-349.83" style=""/>
<text text-anchor="middle" x="65.11" y="-362.12" font-family="Times,serif" font-size="14.00" style="">a</text>
</g>
<!-- f 2|3 -->
<g id="node7" class="node" pointer-events="visible" data-name="f 2|3">

<ellipse fill="none" stroke="black" cx="86" cy="-73.05" rx="28.04" ry="28.04" style=""/>
<ellipse fill="none" stroke="black" cx="86" cy="-73.05" rx="32.01" ry="32.01" style=""/>
<text text-anchor="middle" x="86" y="-68.85" font-family="Times,serif" font-size="14.00" style="">f 2|3</text>
</g>
<!-- f 2|2&#45;&gt;f 2|3 -->
<g id="edge12" class="edge" data-name="f 2|2-&gt;f 2|3">

<path fill="none" stroke="black" d="M51.01,-397.13C41.93,-381.18 31.68,-360.17 27,-339.92 8.74,-260.84 19.73,-235.55 44,-158.11 49.12,-141.76 57.11,-124.68 64.75,-110.22" style=""/>
<polygon fill="black" stroke="black" points="67.99,-111.59 69.68,-101.14 61.83,-108.25 67.99,-111.59" style=""/>
<text text-anchor="middle" x="24.5" y="-244.81" font-family="Times,serif" font-size="14.00" style="">b</text>
</g>
<!-- f 1|3&#45;&gt;f 1|1 -->
<g id="edge10" class="edge" data-name="f 1|3-&gt;f 1|1">

<path fill="none" stroke="black" d="M108.1,-213.18C122.94,-228.88 140.91,-251.43 149,-275.41 189.46,-395.35 160.74,-548.84 143.89,-617.96" style=""/>
<polygon fill="black" stroke="black" points="140.43,-617.37 141.4,-627.92 147.22,-619.07 140.43,-617.37" style=""/>
<text text-anchor="middle" x="172.5" y="-420.77" font-family="Times,serif" font-size="14.00" style="">b</text>
</g>
<!-- f 1|3&#45;&gt;f 2|3 -->
<g id="edge4" class="edge" data-name="f 1|3-&gt;f 2|3">

<path fill="none" stroke="black" d="M85.27,-157.85C85.39,-144.89 85.52,-129.68 85.64,-115.81" style=""/>
<polygon fill="black" stroke="black" points="89.14,-115.55 85.73,-105.52 82.14,-115.49 89.14,-115.55" style=""/>
<text text-anchor="middle" x="88.11" y="-127.51" font-family="Times,serif" font-size="14.00" style="">a</text>
</g>
<!-- f 2|3&#45;&gt;f 2|1 -->
<g id="edge13" class="edge" data-name="f 2|3-&gt;f 2|1">

<path fill="none" stroke="black" d="M102.58,-100.95C111.44,-116.91 121.44,-137.93 126,-158.11 153.66,-280.59 129.21,-430.42 114.38,-500.93" style=""/>
<polygon fill="black" stroke="black" points="110.95,-500.24 112.27,-510.75 117.8,-501.71 110.95,-500.24" style=""/>
<text text-anchor="middle" x="141.5" y="-303.46" font-family="Times,serif" font-size="14.00" style="">b</text>
</g>
<!-- f 2|3&#45;&gt;f 1|3 -->
<g id="edge7" class="edge" data-name="f 2|3-&gt;f 1|3">

<path fill="none" stroke="black" d="M78.65,-104.64C77.46,-110.79 76.41,-117.22 75.79,-123.31 74.94,-131.58 75.29,-140.4 76.24,-148.83" style=""/>
<polygon fill="black" stroke="black" points="72.78,-149.42 77.64,-158.83 79.72,-148.44 72.78,-149.42" style=""/>
<text text-anchor="middle" x="79.11" y="-127.51" font-family="Times,serif" font-size="14.00" style="">a</text>
</g>
</g>
</svg>